<mxfile host="app.diagrams.net" modified="2024-07-20T05:16:23.042Z" agent="Mozilla/5.0 (Windows NT 10.0; Win64; x64) AppleWebKit/537.36 (KHTML, like Gecko) Chrome/126.0.0.0 Safari/537.36" etag="1VK1VFI63wQK8Cz2zE-y" version="24.6.4" type="device">
  <diagram name="Page-1" id="ZdhJCpIlXvxpRRH1GwyK">
    <mxGraphModel dx="7865" dy="3645" grid="0" gridSize="10" guides="1" tooltips="1" connect="1" arrows="1" fold="1" page="1" pageScale="1" pageWidth="850" pageHeight="1100" math="0" shadow="0">
      <root>
        <mxCell id="0" />
        <mxCell id="1" parent="0" />
        <mxCell id="sK9uzCpT_N-U4nyebc3v-209" value="" style="edgeStyle=orthogonalEdgeStyle;fontSize=12;html=1;endArrow=ERone;endFill=1;rounded=0;startSize=8;endSize=8;exitX=0.5;exitY=0;exitDx=0;exitDy=0;entryX=0.5;entryY=1;entryDx=0;entryDy=0;flowAnimation=0;shadow=0;" edge="1" parent="1" source="sK9uzCpT_N-U4nyebc3v-204" target="sK9uzCpT_N-U4nyebc3v-1">
          <mxGeometry width="100" height="100" relative="1" as="geometry">
            <mxPoint x="131.5" y="560.98" as="sourcePoint" />
            <mxPoint x="117" y="282" as="targetPoint" />
          </mxGeometry>
        </mxCell>
        <mxCell id="sK9uzCpT_N-U4nyebc3v-1" value="Patients" style="rounded=1;whiteSpace=wrap;html=1;arcSize=12;spacing=2;fontSize=15;fillStyle=auto;fillColor=#dae8fc;strokeColor=#6c8ebf;" vertex="1" parent="1">
          <mxGeometry x="52" y="204" width="120" height="60" as="geometry" />
        </mxCell>
        <mxCell id="sK9uzCpT_N-U4nyebc3v-3" value="&lt;p style=&quot;line-height: 100%;&quot;&gt;&lt;br&gt; patient_id&lt;br&gt;&lt;br&gt;&lt;/p&gt;" style="ellipse;whiteSpace=wrap;html=1;fontSize=15;" vertex="1" parent="1">
          <mxGeometry x="-134" y="-9" width="120" height="62" as="geometry" />
        </mxCell>
        <mxCell id="sK9uzCpT_N-U4nyebc3v-4" value="first_name" style="ellipse;whiteSpace=wrap;html=1;fontSize=15;" vertex="1" parent="1">
          <mxGeometry x="26" y="-24" width="120" height="62" as="geometry" />
        </mxCell>
        <mxCell id="sK9uzCpT_N-U4nyebc3v-5" value="&lt;p style=&quot;line-height: 100%;&quot;&gt;last_name&lt;br&gt;&lt;/p&gt;" style="ellipse;whiteSpace=wrap;html=1;fontSize=15;" vertex="1" parent="1">
          <mxGeometry x="186" y="13" width="120" height="62" as="geometry" />
        </mxCell>
        <mxCell id="sK9uzCpT_N-U4nyebc3v-6" style="edgeStyle=none;curved=1;rounded=0;orthogonalLoop=1;jettySize=auto;html=1;exitX=0.5;exitY=0;exitDx=0;exitDy=0;entryX=0.558;entryY=0.097;entryDx=0;entryDy=0;entryPerimeter=0;fontSize=12;startSize=8;endSize=8;" edge="1" parent="1" source="sK9uzCpT_N-U4nyebc3v-5" target="sK9uzCpT_N-U4nyebc3v-5">
          <mxGeometry relative="1" as="geometry" />
        </mxCell>
        <mxCell id="sK9uzCpT_N-U4nyebc3v-7" value="&lt;p style=&quot;line-height: 100%;&quot;&gt;date_of_birth&lt;br&gt;&lt;/p&gt;" style="ellipse;whiteSpace=wrap;html=1;fontSize=15;" vertex="1" parent="1">
          <mxGeometry x="-212" y="100" width="120" height="62" as="geometry" />
        </mxCell>
        <mxCell id="sK9uzCpT_N-U4nyebc3v-8" value="&lt;p style=&quot;line-height: 100%;&quot;&gt;address&lt;br&gt;&lt;/p&gt;" style="ellipse;whiteSpace=wrap;html=1;fontSize=15;" vertex="1" parent="1">
          <mxGeometry x="-219" y="183" width="119" height="62" as="geometry" />
        </mxCell>
        <mxCell id="sK9uzCpT_N-U4nyebc3v-9" value="&lt;p style=&quot;line-height: 100%;&quot;&gt;phone&lt;br&gt;&lt;/p&gt;" style="ellipse;whiteSpace=wrap;html=1;fontSize=15;" vertex="1" parent="1">
          <mxGeometry x="225" y="104" width="120" height="62" as="geometry" />
        </mxCell>
        <mxCell id="sK9uzCpT_N-U4nyebc3v-10" value="&lt;p style=&quot;line-height: 100%;&quot;&gt;email&lt;br&gt;&lt;/p&gt;" style="ellipse;whiteSpace=wrap;html=1;fontSize=15;" vertex="1" parent="1">
          <mxGeometry x="-174" y="263" width="120" height="62" as="geometry" />
        </mxCell>
        <mxCell id="sK9uzCpT_N-U4nyebc3v-13" value="" style="endArrow=none;html=1;rounded=0;fontSize=12;startSize=8;endSize=8;curved=1;exitX=1;exitY=0.5;exitDx=0;exitDy=0;entryX=0;entryY=0.5;entryDx=0;entryDy=0;" edge="1" parent="1" source="sK9uzCpT_N-U4nyebc3v-8" target="sK9uzCpT_N-U4nyebc3v-1">
          <mxGeometry width="50" height="50" relative="1" as="geometry">
            <mxPoint x="-21" y="272" as="sourcePoint" />
            <mxPoint x="29" y="222" as="targetPoint" />
            <Array as="points">
              <mxPoint x="12" y="237" />
            </Array>
          </mxGeometry>
        </mxCell>
        <mxCell id="sK9uzCpT_N-U4nyebc3v-14" value="" style="endArrow=none;html=1;rounded=0;fontSize=12;startSize=8;endSize=8;curved=1;exitX=0.992;exitY=0.613;exitDx=0;exitDy=0;entryX=0;entryY=0;entryDx=0;entryDy=0;exitPerimeter=0;" edge="1" parent="1" source="sK9uzCpT_N-U4nyebc3v-7" target="sK9uzCpT_N-U4nyebc3v-1">
          <mxGeometry width="50" height="50" relative="1" as="geometry">
            <mxPoint x="-92" y="162" as="sourcePoint" />
            <mxPoint x="30" y="145" as="targetPoint" />
          </mxGeometry>
        </mxCell>
        <mxCell id="sK9uzCpT_N-U4nyebc3v-15" value="" style="endArrow=none;html=1;rounded=0;fontSize=12;startSize=8;endSize=8;curved=1;exitX=1;exitY=0.5;exitDx=0;exitDy=0;entryX=0.5;entryY=1;entryDx=0;entryDy=0;" edge="1" parent="1" source="sK9uzCpT_N-U4nyebc3v-1" target="sK9uzCpT_N-U4nyebc3v-9">
          <mxGeometry width="50" height="50" relative="1" as="geometry">
            <mxPoint x="224" y="231" as="sourcePoint" />
            <mxPoint x="346" y="214" as="targetPoint" />
          </mxGeometry>
        </mxCell>
        <mxCell id="sK9uzCpT_N-U4nyebc3v-16" value="" style="endArrow=none;html=1;rounded=0;fontSize=12;startSize=8;endSize=8;curved=1;exitX=1;exitY=1;exitDx=0;exitDy=0;entryX=0.5;entryY=0;entryDx=0;entryDy=0;" edge="1" parent="1" source="sK9uzCpT_N-U4nyebc3v-3" target="sK9uzCpT_N-U4nyebc3v-1">
          <mxGeometry width="50" height="50" relative="1" as="geometry">
            <mxPoint x="-67" y="89" as="sourcePoint" />
            <mxPoint x="55" y="72" as="targetPoint" />
          </mxGeometry>
        </mxCell>
        <mxCell id="sK9uzCpT_N-U4nyebc3v-17" value="" style="endArrow=none;html=1;rounded=0;fontSize=12;startSize=8;endSize=8;curved=1;exitX=0.5;exitY=1;exitDx=0;exitDy=0;entryX=0.675;entryY=0;entryDx=0;entryDy=0;entryPerimeter=0;" edge="1" parent="1" source="sK9uzCpT_N-U4nyebc3v-4" target="sK9uzCpT_N-U4nyebc3v-1">
          <mxGeometry width="50" height="50" relative="1" as="geometry">
            <mxPoint x="20" y="84" as="sourcePoint" />
            <mxPoint x="142" y="67" as="targetPoint" />
          </mxGeometry>
        </mxCell>
        <mxCell id="sK9uzCpT_N-U4nyebc3v-18" value="" style="endArrow=none;html=1;rounded=0;fontSize=12;startSize=8;endSize=8;curved=1;exitX=0.808;exitY=-0.017;exitDx=0;exitDy=0;entryX=0.3;entryY=0.984;entryDx=0;entryDy=0;entryPerimeter=0;exitPerimeter=0;" edge="1" parent="1" source="sK9uzCpT_N-U4nyebc3v-1" target="sK9uzCpT_N-U4nyebc3v-5">
          <mxGeometry width="50" height="50" relative="1" as="geometry">
            <mxPoint x="97" y="121" as="sourcePoint" />
            <mxPoint x="219" y="104" as="targetPoint" />
          </mxGeometry>
        </mxCell>
        <mxCell id="sK9uzCpT_N-U4nyebc3v-19" value="" style="endArrow=none;html=1;rounded=0;fontSize=12;startSize=8;endSize=8;curved=1;exitX=1;exitY=0;exitDx=0;exitDy=0;entryX=0;entryY=0.75;entryDx=0;entryDy=0;" edge="1" parent="1" source="sK9uzCpT_N-U4nyebc3v-10" target="sK9uzCpT_N-U4nyebc3v-1">
          <mxGeometry width="50" height="50" relative="1" as="geometry">
            <mxPoint x="10" y="313" as="sourcePoint" />
            <mxPoint x="132" y="296" as="targetPoint" />
          </mxGeometry>
        </mxCell>
        <mxCell id="sK9uzCpT_N-U4nyebc3v-20" value="Doctors" style="rounded=1;whiteSpace=wrap;html=1;arcSize=12;spacing=2;fontSize=15;fillStyle=auto;fillColor=#dae8fc;strokeColor=#6c8ebf;" vertex="1" parent="1">
          <mxGeometry x="-798.5" y="331" width="120" height="60" as="geometry" />
        </mxCell>
        <mxCell id="sK9uzCpT_N-U4nyebc3v-21" value="&lt;p style=&quot;line-height: 100%;&quot;&gt;&amp;nbsp;doctor_id&lt;br&gt;&lt;/p&gt;" style="ellipse;whiteSpace=wrap;html=1;fontSize=15;" vertex="1" parent="1">
          <mxGeometry x="-1013.5" y="-9" width="120" height="62" as="geometry" />
        </mxCell>
        <mxCell id="sK9uzCpT_N-U4nyebc3v-22" value="first_name" style="ellipse;whiteSpace=wrap;html=1;fontSize=15;" vertex="1" parent="1">
          <mxGeometry x="-853.5" y="-24" width="120" height="62" as="geometry" />
        </mxCell>
        <mxCell id="sK9uzCpT_N-U4nyebc3v-23" value="&lt;p style=&quot;line-height: 100%;&quot;&gt;last_name&lt;br&gt;&lt;/p&gt;" style="ellipse;whiteSpace=wrap;html=1;fontSize=15;" vertex="1" parent="1">
          <mxGeometry x="-693.5" y="13" width="120" height="62" as="geometry" />
        </mxCell>
        <mxCell id="sK9uzCpT_N-U4nyebc3v-24" style="edgeStyle=none;curved=1;rounded=0;orthogonalLoop=1;jettySize=auto;html=1;exitX=0.5;exitY=0;exitDx=0;exitDy=0;entryX=0.558;entryY=0.097;entryDx=0;entryDy=0;entryPerimeter=0;fontSize=12;startSize=8;endSize=8;" edge="1" parent="1" source="sK9uzCpT_N-U4nyebc3v-23" target="sK9uzCpT_N-U4nyebc3v-23">
          <mxGeometry relative="1" as="geometry" />
        </mxCell>
        <mxCell id="sK9uzCpT_N-U4nyebc3v-25" value="&lt;p style=&quot;line-height: 100%;&quot;&gt;specialization&lt;br&gt;&lt;/p&gt;" style="ellipse;whiteSpace=wrap;html=1;fontSize=15;" vertex="1" parent="1">
          <mxGeometry x="-1091.5" y="100" width="120" height="62" as="geometry" />
        </mxCell>
        <mxCell id="sK9uzCpT_N-U4nyebc3v-26" value="&lt;p style=&quot;line-height: 100%;&quot;&gt;age&lt;br&gt;&lt;/p&gt;" style="ellipse;whiteSpace=wrap;html=1;fontSize=15;" vertex="1" parent="1">
          <mxGeometry x="-1075.5" y="213" width="119" height="62" as="geometry" />
        </mxCell>
        <mxCell id="sK9uzCpT_N-U4nyebc3v-27" value="&lt;p style=&quot;line-height: 100%;&quot;&gt;phone&lt;br&gt;&lt;/p&gt;" style="ellipse;whiteSpace=wrap;html=1;fontSize=15;" vertex="1" parent="1">
          <mxGeometry x="-603" y="100" width="120" height="62" as="geometry" />
        </mxCell>
        <mxCell id="sK9uzCpT_N-U4nyebc3v-28" value="&lt;p style=&quot;line-height: 100%;&quot;&gt;email&lt;br&gt;&lt;/p&gt;" style="ellipse;whiteSpace=wrap;html=1;fontSize=15;" vertex="1" parent="1">
          <mxGeometry x="-1032.5" y="301" width="120" height="62" as="geometry" />
        </mxCell>
        <mxCell id="sK9uzCpT_N-U4nyebc3v-29" value="" style="endArrow=none;html=1;rounded=0;fontSize=12;startSize=8;endSize=8;curved=1;exitX=1;exitY=0.5;exitDx=0;exitDy=0;entryX=0;entryY=0.5;entryDx=0;entryDy=0;" edge="1" parent="1" source="sK9uzCpT_N-U4nyebc3v-26" target="sK9uzCpT_N-U4nyebc3v-20">
          <mxGeometry width="50" height="50" relative="1" as="geometry">
            <mxPoint x="-900.5" y="272" as="sourcePoint" />
            <mxPoint x="-850.5" y="222" as="targetPoint" />
            <Array as="points">
              <mxPoint x="-867.5" y="237" />
            </Array>
          </mxGeometry>
        </mxCell>
        <mxCell id="sK9uzCpT_N-U4nyebc3v-30" value="" style="endArrow=none;html=1;rounded=0;fontSize=12;startSize=8;endSize=8;curved=1;exitX=0.992;exitY=0.613;exitDx=0;exitDy=0;entryX=0;entryY=0;entryDx=0;entryDy=0;exitPerimeter=0;" edge="1" parent="1" source="sK9uzCpT_N-U4nyebc3v-25" target="sK9uzCpT_N-U4nyebc3v-20">
          <mxGeometry width="50" height="50" relative="1" as="geometry">
            <mxPoint x="-971.5" y="162" as="sourcePoint" />
            <mxPoint x="-849.5" y="145" as="targetPoint" />
          </mxGeometry>
        </mxCell>
        <mxCell id="sK9uzCpT_N-U4nyebc3v-31" value="" style="endArrow=none;html=1;rounded=0;fontSize=12;startSize=8;endSize=8;curved=1;exitX=1;exitY=0.5;exitDx=0;exitDy=0;entryX=0.375;entryY=0.968;entryDx=0;entryDy=0;entryPerimeter=0;" edge="1" parent="1" source="sK9uzCpT_N-U4nyebc3v-20" target="sK9uzCpT_N-U4nyebc3v-27">
          <mxGeometry width="50" height="50" relative="1" as="geometry">
            <mxPoint x="-655.5" y="231" as="sourcePoint" />
            <mxPoint x="-594.5" y="166" as="targetPoint" />
          </mxGeometry>
        </mxCell>
        <mxCell id="sK9uzCpT_N-U4nyebc3v-32" value="" style="endArrow=none;html=1;rounded=0;fontSize=12;startSize=8;endSize=8;curved=1;exitX=1;exitY=1;exitDx=0;exitDy=0;entryX=0.5;entryY=0;entryDx=0;entryDy=0;" edge="1" parent="1" source="sK9uzCpT_N-U4nyebc3v-21" target="sK9uzCpT_N-U4nyebc3v-20">
          <mxGeometry width="50" height="50" relative="1" as="geometry">
            <mxPoint x="-946.5" y="89" as="sourcePoint" />
            <mxPoint x="-824.5" y="72" as="targetPoint" />
          </mxGeometry>
        </mxCell>
        <mxCell id="sK9uzCpT_N-U4nyebc3v-33" value="" style="endArrow=none;html=1;rounded=0;fontSize=12;startSize=8;endSize=8;curved=1;exitX=0.5;exitY=1;exitDx=0;exitDy=0;entryX=0.675;entryY=0;entryDx=0;entryDy=0;entryPerimeter=0;" edge="1" parent="1" source="sK9uzCpT_N-U4nyebc3v-22" target="sK9uzCpT_N-U4nyebc3v-20">
          <mxGeometry width="50" height="50" relative="1" as="geometry">
            <mxPoint x="-859.5" y="84" as="sourcePoint" />
            <mxPoint x="-737.5" y="67" as="targetPoint" />
          </mxGeometry>
        </mxCell>
        <mxCell id="sK9uzCpT_N-U4nyebc3v-34" value="" style="endArrow=none;html=1;rounded=0;fontSize=12;startSize=8;endSize=8;curved=1;exitX=0.808;exitY=-0.017;exitDx=0;exitDy=0;entryX=0.3;entryY=0.984;entryDx=0;entryDy=0;entryPerimeter=0;exitPerimeter=0;" edge="1" parent="1" source="sK9uzCpT_N-U4nyebc3v-20" target="sK9uzCpT_N-U4nyebc3v-23">
          <mxGeometry width="50" height="50" relative="1" as="geometry">
            <mxPoint x="-782.5" y="121" as="sourcePoint" />
            <mxPoint x="-660.5" y="104" as="targetPoint" />
          </mxGeometry>
        </mxCell>
        <mxCell id="sK9uzCpT_N-U4nyebc3v-35" value="" style="endArrow=none;html=1;rounded=0;fontSize=12;startSize=8;endSize=8;curved=1;exitX=1;exitY=0;exitDx=0;exitDy=0;entryX=0;entryY=0.75;entryDx=0;entryDy=0;" edge="1" parent="1" source="sK9uzCpT_N-U4nyebc3v-28" target="sK9uzCpT_N-U4nyebc3v-20">
          <mxGeometry width="50" height="50" relative="1" as="geometry">
            <mxPoint x="-869.5" y="313" as="sourcePoint" />
            <mxPoint x="-747.5" y="296" as="targetPoint" />
          </mxGeometry>
        </mxCell>
        <mxCell id="sK9uzCpT_N-U4nyebc3v-40" value="" style="endArrow=none;html=1;rounded=0;fontSize=12;startSize=8;endSize=8;curved=1;strokeWidth=3;" edge="1" parent="1">
          <mxGeometry width="50" height="50" relative="1" as="geometry">
            <mxPoint x="-987.5" y="35" as="sourcePoint" />
            <mxPoint x="-912.5" y="35" as="targetPoint" />
          </mxGeometry>
        </mxCell>
        <mxCell id="sK9uzCpT_N-U4nyebc3v-41" value="" style="endArrow=none;html=1;rounded=0;fontSize=12;startSize=8;endSize=8;curved=1;strokeWidth=3;" edge="1" parent="1">
          <mxGeometry width="50" height="50" relative="1" as="geometry">
            <mxPoint x="-111.5" y="41" as="sourcePoint" />
            <mxPoint x="-36.5" y="41" as="targetPoint" />
          </mxGeometry>
        </mxCell>
        <mxCell id="sK9uzCpT_N-U4nyebc3v-44" value="Nurses" style="rounded=1;whiteSpace=wrap;html=1;arcSize=12;spacing=2;fontSize=15;fillStyle=auto;fillColor=#dae8fc;strokeColor=#6c8ebf;" vertex="1" parent="1">
          <mxGeometry x="-1883" y="1085" width="120" height="60" as="geometry" />
        </mxCell>
        <mxCell id="sK9uzCpT_N-U4nyebc3v-45" value="&lt;p style=&quot;line-height: 100%;&quot;&gt;nurse_id&lt;br&gt;&lt;/p&gt;" style="ellipse;whiteSpace=wrap;html=1;fontSize=15;" vertex="1" parent="1">
          <mxGeometry x="-2308" y="1066" width="120" height="62" as="geometry" />
        </mxCell>
        <mxCell id="sK9uzCpT_N-U4nyebc3v-46" value="first_name" style="ellipse;whiteSpace=wrap;html=1;fontSize=15;" vertex="1" parent="1">
          <mxGeometry x="-2319" y="970" width="120" height="62" as="geometry" />
        </mxCell>
        <mxCell id="sK9uzCpT_N-U4nyebc3v-47" value="&lt;p style=&quot;line-height: 100%;&quot;&gt;last_name&lt;br&gt;&lt;/p&gt;" style="ellipse;whiteSpace=wrap;html=1;fontSize=15;" vertex="1" parent="1">
          <mxGeometry x="-2155" y="927" width="120" height="62" as="geometry" />
        </mxCell>
        <mxCell id="sK9uzCpT_N-U4nyebc3v-48" style="edgeStyle=none;curved=1;rounded=0;orthogonalLoop=1;jettySize=auto;html=1;exitX=0.5;exitY=0;exitDx=0;exitDy=0;entryX=0.558;entryY=0.097;entryDx=0;entryDy=0;entryPerimeter=0;fontSize=12;startSize=8;endSize=8;" edge="1" parent="1" source="sK9uzCpT_N-U4nyebc3v-47" target="sK9uzCpT_N-U4nyebc3v-47">
          <mxGeometry relative="1" as="geometry" />
        </mxCell>
        <mxCell id="sK9uzCpT_N-U4nyebc3v-49" value="&lt;p style=&quot;line-height: 100%;&quot;&gt;age&lt;br&gt;&lt;/p&gt;" style="ellipse;whiteSpace=wrap;html=1;fontSize=15;" vertex="1" parent="1">
          <mxGeometry x="-2285" y="1156" width="120" height="62" as="geometry" />
        </mxCell>
        <mxCell id="sK9uzCpT_N-U4nyebc3v-51" value="&lt;p style=&quot;line-height: 100%;&quot;&gt;phone&lt;br&gt;&lt;/p&gt;" style="ellipse;whiteSpace=wrap;html=1;fontSize=15;" vertex="1" parent="1">
          <mxGeometry x="-2011" y="919" width="120" height="62" as="geometry" />
        </mxCell>
        <mxCell id="sK9uzCpT_N-U4nyebc3v-52" value="&lt;p style=&quot;line-height: 100%;&quot;&gt;email&lt;br&gt;&lt;/p&gt;" style="ellipse;whiteSpace=wrap;html=1;fontSize=15;" vertex="1" parent="1">
          <mxGeometry x="-2139" y="1181" width="120" height="62" as="geometry" />
        </mxCell>
        <mxCell id="sK9uzCpT_N-U4nyebc3v-54" value="" style="endArrow=none;html=1;rounded=0;fontSize=12;startSize=8;endSize=8;curved=1;exitX=1.016;exitY=0.389;exitDx=0;exitDy=0;exitPerimeter=0;" edge="1" parent="1" source="sK9uzCpT_N-U4nyebc3v-49" target="sK9uzCpT_N-U4nyebc3v-44">
          <mxGeometry width="50" height="50" relative="1" as="geometry">
            <mxPoint x="-2604.96" y="1008.0059999999999" as="sourcePoint" />
            <mxPoint x="-2490" y="1093" as="targetPoint" />
          </mxGeometry>
        </mxCell>
        <mxCell id="sK9uzCpT_N-U4nyebc3v-55" value="" style="endArrow=none;html=1;rounded=0;fontSize=12;startSize=8;endSize=8;curved=1;exitX=0;exitY=0;exitDx=0;exitDy=0;entryX=0.5;entryY=1;entryDx=0;entryDy=0;" edge="1" parent="1" source="sK9uzCpT_N-U4nyebc3v-44" target="sK9uzCpT_N-U4nyebc3v-51">
          <mxGeometry width="50" height="50" relative="1" as="geometry">
            <mxPoint x="-2370" y="1123" as="sourcePoint" />
            <mxPoint x="-2166" y="1084" as="targetPoint" />
          </mxGeometry>
        </mxCell>
        <mxCell id="sK9uzCpT_N-U4nyebc3v-56" value="" style="endArrow=none;html=1;rounded=0;fontSize=12;startSize=8;endSize=8;curved=1;exitX=1.035;exitY=0.614;exitDx=0;exitDy=0;entryX=0;entryY=0.75;entryDx=0;entryDy=0;exitPerimeter=0;" edge="1" parent="1" source="sK9uzCpT_N-U4nyebc3v-45" target="sK9uzCpT_N-U4nyebc3v-44">
          <mxGeometry width="50" height="50" relative="1" as="geometry">
            <mxPoint x="-2542.105305809834" y="913.134482387858" as="sourcePoint" />
            <mxPoint x="-2430" y="1093" as="targetPoint" />
          </mxGeometry>
        </mxCell>
        <mxCell id="sK9uzCpT_N-U4nyebc3v-57" value="" style="endArrow=none;html=1;rounded=0;fontSize=12;startSize=8;endSize=8;curved=1;exitX=0.5;exitY=1;exitDx=0;exitDy=0;entryX=0;entryY=0.5;entryDx=0;entryDy=0;" edge="1" parent="1" source="sK9uzCpT_N-U4nyebc3v-46" target="sK9uzCpT_N-U4nyebc3v-44">
          <mxGeometry width="50" height="50" relative="1" as="geometry">
            <mxPoint x="-2425" y="883.0000000000009" as="sourcePoint" />
            <mxPoint x="-2409" y="1093" as="targetPoint" />
          </mxGeometry>
        </mxCell>
        <mxCell id="sK9uzCpT_N-U4nyebc3v-58" value="" style="endArrow=none;html=1;rounded=0;fontSize=12;startSize=8;endSize=8;curved=1;exitX=0;exitY=0.25;exitDx=0;exitDy=0;entryX=0.3;entryY=0.984;entryDx=0;entryDy=0;entryPerimeter=0;" edge="1" parent="1" source="sK9uzCpT_N-U4nyebc3v-44" target="sK9uzCpT_N-U4nyebc3v-47">
          <mxGeometry width="50" height="50" relative="1" as="geometry">
            <mxPoint x="-2393.04" y="1091.98" as="sourcePoint" />
            <mxPoint x="-2293" y="974" as="targetPoint" />
          </mxGeometry>
        </mxCell>
        <mxCell id="sK9uzCpT_N-U4nyebc3v-59" value="" style="endArrow=none;html=1;rounded=0;fontSize=12;startSize=8;endSize=8;curved=1;entryX=0;entryY=0.75;entryDx=0;entryDy=0;exitX=0.922;exitY=0.214;exitDx=0;exitDy=0;exitPerimeter=0;" edge="1" parent="1" source="sK9uzCpT_N-U4nyebc3v-52" target="sK9uzCpT_N-U4nyebc3v-44">
          <mxGeometry width="50" height="50" relative="1" as="geometry">
            <mxPoint x="-2344" y="1118" as="sourcePoint" />
            <mxPoint x="-2107" y="1196" as="targetPoint" />
          </mxGeometry>
        </mxCell>
        <mxCell id="sK9uzCpT_N-U4nyebc3v-60" value="" style="endArrow=none;html=1;rounded=0;fontSize=12;startSize=8;endSize=8;curved=1;strokeWidth=3;" edge="1" parent="1">
          <mxGeometry width="50" height="50" relative="1" as="geometry">
            <mxPoint x="-2285.5" y="1112" as="sourcePoint" />
            <mxPoint x="-2210.5" y="1112" as="targetPoint" />
          </mxGeometry>
        </mxCell>
        <mxCell id="sK9uzCpT_N-U4nyebc3v-61" value="Medications" style="rounded=1;whiteSpace=wrap;html=1;arcSize=12;spacing=2;fontSize=15;fillStyle=auto;fillColor=#dae8fc;strokeColor=#6c8ebf;" vertex="1" parent="1">
          <mxGeometry x="-1317.5" y="885" width="120" height="60" as="geometry" />
        </mxCell>
        <mxCell id="sK9uzCpT_N-U4nyebc3v-62" value="&lt;p style=&quot;line-height: 100%;&quot;&gt;med_id&lt;br&gt;&lt;/p&gt;" style="ellipse;whiteSpace=wrap;html=1;fontSize=15;" vertex="1" parent="1">
          <mxGeometry x="-1237" y="607" width="120" height="62" as="geometry" />
        </mxCell>
        <mxCell id="sK9uzCpT_N-U4nyebc3v-63" value="med_name" style="ellipse;whiteSpace=wrap;html=1;fontSize=15;" vertex="1" parent="1">
          <mxGeometry x="-1381" y="665" width="120" height="62" as="geometry" />
        </mxCell>
        <mxCell id="sK9uzCpT_N-U4nyebc3v-64" value="&lt;p style=&quot;line-height: 100%;&quot;&gt;description&lt;br&gt;&lt;/p&gt;" style="ellipse;whiteSpace=wrap;html=1;fontSize=15;" vertex="1" parent="1">
          <mxGeometry x="-1133.5" y="684" width="120" height="62" as="geometry" />
        </mxCell>
        <mxCell id="sK9uzCpT_N-U4nyebc3v-65" style="edgeStyle=none;curved=1;rounded=0;orthogonalLoop=1;jettySize=auto;html=1;exitX=0.5;exitY=0;exitDx=0;exitDy=0;entryX=0.558;entryY=0.097;entryDx=0;entryDy=0;entryPerimeter=0;fontSize=12;startSize=8;endSize=8;" edge="1" parent="1" source="sK9uzCpT_N-U4nyebc3v-64" target="sK9uzCpT_N-U4nyebc3v-64">
          <mxGeometry relative="1" as="geometry" />
        </mxCell>
        <mxCell id="sK9uzCpT_N-U4nyebc3v-66" value="&lt;p style=&quot;line-height: 100%;&quot;&gt;dosage&lt;br&gt;&lt;/p&gt;" style="ellipse;whiteSpace=wrap;html=1;fontSize=15;" vertex="1" parent="1">
          <mxGeometry x="-1470" y="742" width="120" height="62" as="geometry" />
        </mxCell>
        <mxCell id="sK9uzCpT_N-U4nyebc3v-67" value="&lt;p style=&quot;line-height: 100%;&quot;&gt;side_effects&lt;br&gt;&lt;/p&gt;" style="ellipse;whiteSpace=wrap;html=1;fontSize=15;" vertex="1" parent="1">
          <mxGeometry x="-1076.5" y="769" width="120" height="62" as="geometry" />
        </mxCell>
        <mxCell id="sK9uzCpT_N-U4nyebc3v-69" value="" style="endArrow=none;html=1;rounded=0;fontSize=12;startSize=8;endSize=8;curved=1;exitX=0.592;exitY=1;exitDx=0;exitDy=0;exitPerimeter=0;" edge="1" parent="1" source="sK9uzCpT_N-U4nyebc3v-66" target="sK9uzCpT_N-U4nyebc3v-61">
          <mxGeometry width="50" height="50" relative="1" as="geometry">
            <mxPoint x="-1463.5" y="831" as="sourcePoint" />
            <mxPoint x="-1341.5" y="814" as="targetPoint" />
          </mxGeometry>
        </mxCell>
        <mxCell id="sK9uzCpT_N-U4nyebc3v-70" value="" style="endArrow=none;html=1;rounded=0;fontSize=12;startSize=8;endSize=8;curved=1;exitX=1;exitY=0;exitDx=0;exitDy=0;entryX=0.1;entryY=0.177;entryDx=0;entryDy=0;entryPerimeter=0;" edge="1" parent="1" source="sK9uzCpT_N-U4nyebc3v-61" target="sK9uzCpT_N-U4nyebc3v-67">
          <mxGeometry width="50" height="50" relative="1" as="geometry">
            <mxPoint x="-1147.5" y="900" as="sourcePoint" />
            <mxPoint x="-1025.5" y="883" as="targetPoint" />
          </mxGeometry>
        </mxCell>
        <mxCell id="sK9uzCpT_N-U4nyebc3v-71" value="" style="endArrow=none;html=1;rounded=0;fontSize=12;startSize=8;endSize=8;curved=1;entryX=0.5;entryY=0;entryDx=0;entryDy=0;exitX=0.42;exitY=0.996;exitDx=0;exitDy=0;exitPerimeter=0;" edge="1" parent="1" source="sK9uzCpT_N-U4nyebc3v-62" target="sK9uzCpT_N-U4nyebc3v-61">
          <mxGeometry width="50" height="50" relative="1" as="geometry">
            <mxPoint x="-1385.0575087300786" y="1113.911476520996" as="sourcePoint" />
            <mxPoint x="-1316.5" y="741" as="targetPoint" />
          </mxGeometry>
        </mxCell>
        <mxCell id="sK9uzCpT_N-U4nyebc3v-72" value="" style="endArrow=none;html=1;rounded=0;fontSize=12;startSize=8;endSize=8;curved=1;exitX=0.5;exitY=1;exitDx=0;exitDy=0;" edge="1" parent="1" source="sK9uzCpT_N-U4nyebc3v-63" target="sK9uzCpT_N-U4nyebc3v-61">
          <mxGeometry width="50" height="50" relative="1" as="geometry">
            <mxPoint x="-1351.5" y="753" as="sourcePoint" />
            <mxPoint x="-1229.5" y="736" as="targetPoint" />
          </mxGeometry>
        </mxCell>
        <mxCell id="sK9uzCpT_N-U4nyebc3v-73" value="" style="endArrow=none;html=1;rounded=0;fontSize=12;startSize=8;endSize=8;curved=1;exitX=0.75;exitY=0;exitDx=0;exitDy=0;entryX=0;entryY=0.5;entryDx=0;entryDy=0;" edge="1" parent="1" source="sK9uzCpT_N-U4nyebc3v-61" target="sK9uzCpT_N-U4nyebc3v-64">
          <mxGeometry width="50" height="50" relative="1" as="geometry">
            <mxPoint x="-1274.5" y="790" as="sourcePoint" />
            <mxPoint x="-1152.5" y="773" as="targetPoint" />
          </mxGeometry>
        </mxCell>
        <mxCell id="sK9uzCpT_N-U4nyebc3v-75" value="" style="endArrow=none;html=1;rounded=0;fontSize=12;startSize=8;endSize=8;curved=1;strokeWidth=3;" edge="1" parent="1">
          <mxGeometry width="50" height="50" relative="1" as="geometry">
            <mxPoint x="-1212" y="657" as="sourcePoint" />
            <mxPoint x="-1137" y="657" as="targetPoint" />
            <Array as="points" />
          </mxGeometry>
        </mxCell>
        <mxCell id="sK9uzCpT_N-U4nyebc3v-76" value="Prescriptions" style="rounded=1;whiteSpace=wrap;html=1;arcSize=12;spacing=2;fontSize=15;fillStyle=auto;fillColor=#dae8fc;strokeColor=#6c8ebf;" vertex="1" parent="1">
          <mxGeometry x="-1883" y="390.5" width="120" height="60" as="geometry" />
        </mxCell>
        <mxCell id="sK9uzCpT_N-U4nyebc3v-77" value="&lt;p style=&quot;line-height: 100%;&quot;&gt;prescription_id,&lt;br&gt;&lt;/p&gt;" style="ellipse;whiteSpace=wrap;html=1;fontSize=15;" vertex="1" parent="1">
          <mxGeometry x="-2053" y="589" width="120" height="62" as="geometry" />
        </mxCell>
        <mxCell id="sK9uzCpT_N-U4nyebc3v-78" value="start_date" style="ellipse;whiteSpace=wrap;html=1;fontSize=15;" vertex="1" parent="1">
          <mxGeometry x="-2173" y="329.5" width="120" height="62" as="geometry" />
        </mxCell>
        <mxCell id="sK9uzCpT_N-U4nyebc3v-79" value="&lt;p style=&quot;line-height: 100%;&quot;&gt;end_date&lt;br&gt;&lt;/p&gt;" style="ellipse;whiteSpace=wrap;html=1;fontSize=15;" vertex="1" parent="1">
          <mxGeometry x="-2221" y="449" width="120" height="62" as="geometry" />
        </mxCell>
        <mxCell id="sK9uzCpT_N-U4nyebc3v-80" style="edgeStyle=none;curved=1;rounded=0;orthogonalLoop=1;jettySize=auto;html=1;exitX=0.5;exitY=0;exitDx=0;exitDy=0;entryX=0.558;entryY=0.097;entryDx=0;entryDy=0;entryPerimeter=0;fontSize=12;startSize=8;endSize=8;" edge="1" parent="1" source="sK9uzCpT_N-U4nyebc3v-79" target="sK9uzCpT_N-U4nyebc3v-79">
          <mxGeometry relative="1" as="geometry" />
        </mxCell>
        <mxCell id="sK9uzCpT_N-U4nyebc3v-81" value="&lt;p style=&quot;line-height: 100%;&quot;&gt;pre_dosage&lt;br&gt;&lt;/p&gt;" style="ellipse;whiteSpace=wrap;html=1;fontSize=15;" vertex="1" parent="1">
          <mxGeometry x="-1928" y="611" width="120" height="62" as="geometry" />
        </mxCell>
        <mxCell id="sK9uzCpT_N-U4nyebc3v-82" value="&lt;p style=&quot;line-height: 100%;&quot;&gt;frequency&lt;br&gt;&lt;/p&gt;" style="ellipse;whiteSpace=wrap;html=1;fontSize=15;" vertex="1" parent="1">
          <mxGeometry x="-2184" y="539" width="120" height="62" as="geometry" />
        </mxCell>
        <mxCell id="sK9uzCpT_N-U4nyebc3v-83" value="" style="endArrow=none;html=1;rounded=0;fontSize=12;startSize=8;endSize=8;curved=1;exitX=0.5;exitY=0;exitDx=0;exitDy=0;entryX=0.5;entryY=1;entryDx=0;entryDy=0;" edge="1" parent="1" source="sK9uzCpT_N-U4nyebc3v-81" target="sK9uzCpT_N-U4nyebc3v-76">
          <mxGeometry width="50" height="50" relative="1" as="geometry">
            <mxPoint x="-2034" y="327.5" as="sourcePoint" />
            <mxPoint x="-1912" y="310.5" as="targetPoint" />
          </mxGeometry>
        </mxCell>
        <mxCell id="sK9uzCpT_N-U4nyebc3v-84" value="" style="endArrow=none;html=1;rounded=0;fontSize=12;startSize=8;endSize=8;curved=1;exitX=0;exitY=1;exitDx=0;exitDy=0;" edge="1" parent="1" source="sK9uzCpT_N-U4nyebc3v-76" target="sK9uzCpT_N-U4nyebc3v-82">
          <mxGeometry width="50" height="50" relative="1" as="geometry">
            <mxPoint x="-1718" y="396.5" as="sourcePoint" />
            <mxPoint x="-1596" y="379.5" as="targetPoint" />
          </mxGeometry>
        </mxCell>
        <mxCell id="sK9uzCpT_N-U4nyebc3v-85" value="" style="endArrow=none;html=1;rounded=0;fontSize=12;startSize=8;endSize=8;curved=1;entryX=0.133;entryY=0.967;entryDx=0;entryDy=0;entryPerimeter=0;" edge="1" parent="1" source="sK9uzCpT_N-U4nyebc3v-77" target="sK9uzCpT_N-U4nyebc3v-76">
          <mxGeometry width="50" height="50" relative="1" as="geometry">
            <mxPoint x="-2009" y="254.5" as="sourcePoint" />
            <mxPoint x="-1887" y="237.5" as="targetPoint" />
          </mxGeometry>
        </mxCell>
        <mxCell id="sK9uzCpT_N-U4nyebc3v-86" value="" style="endArrow=none;html=1;rounded=0;fontSize=12;startSize=8;endSize=8;curved=1;exitX=0.983;exitY=0.758;exitDx=0;exitDy=0;entryX=0;entryY=0.25;entryDx=0;entryDy=0;exitPerimeter=0;" edge="1" parent="1" source="sK9uzCpT_N-U4nyebc3v-78" target="sK9uzCpT_N-U4nyebc3v-76">
          <mxGeometry width="50" height="50" relative="1" as="geometry">
            <mxPoint x="-1922" y="249.5" as="sourcePoint" />
            <mxPoint x="-1800" y="232.5" as="targetPoint" />
          </mxGeometry>
        </mxCell>
        <mxCell id="sK9uzCpT_N-U4nyebc3v-87" value="" style="endArrow=none;html=1;rounded=0;fontSize=12;startSize=8;endSize=8;curved=1;exitX=0;exitY=0.75;exitDx=0;exitDy=0;entryX=1;entryY=0;entryDx=0;entryDy=0;" edge="1" parent="1" source="sK9uzCpT_N-U4nyebc3v-76" target="sK9uzCpT_N-U4nyebc3v-79">
          <mxGeometry width="50" height="50" relative="1" as="geometry">
            <mxPoint x="-1845" y="286.5" as="sourcePoint" />
            <mxPoint x="-1723" y="269.5" as="targetPoint" />
            <Array as="points">
              <mxPoint x="-1911" y="448.5" />
            </Array>
          </mxGeometry>
        </mxCell>
        <mxCell id="sK9uzCpT_N-U4nyebc3v-88" value="" style="endArrow=none;html=1;rounded=0;fontSize=12;startSize=8;endSize=8;curved=1;strokeWidth=3;" edge="1" parent="1">
          <mxGeometry width="50" height="50" relative="1" as="geometry">
            <mxPoint x="-2037" y="637.5" as="sourcePoint" />
            <mxPoint x="-1962" y="637.5" as="targetPoint" />
          </mxGeometry>
        </mxCell>
        <mxCell id="sK9uzCpT_N-U4nyebc3v-97" value="Appointments" style="rounded=1;whiteSpace=wrap;html=1;arcSize=12;spacing=2;fontSize=15;fillStyle=auto;fillColor=#dae8fc;strokeColor=#6c8ebf;" vertex="1" parent="1">
          <mxGeometry x="-43.5" y="1047" width="120" height="60" as="geometry" />
        </mxCell>
        <mxCell id="sK9uzCpT_N-U4nyebc3v-98" value="&lt;p style=&quot;line-height: 100%;&quot;&gt;appointment_id&lt;br&gt;&lt;/p&gt;" style="ellipse;whiteSpace=wrap;html=1;fontSize=15;" vertex="1" parent="1">
          <mxGeometry x="52.5" y="1292" width="110.5" height="62" as="geometry" />
        </mxCell>
        <mxCell id="sK9uzCpT_N-U4nyebc3v-99" value="&lt;p style=&quot;line-height: 100%;&quot;&gt;appointment_date&lt;br&gt;&lt;/p&gt;" style="ellipse;whiteSpace=wrap;html=1;fontSize=15;" vertex="1" parent="1">
          <mxGeometry x="-242" y="1227" width="135" height="62" as="geometry" />
        </mxCell>
        <mxCell id="sK9uzCpT_N-U4nyebc3v-101" value="&lt;p style=&quot;line-height: 100%;&quot;&gt;pre_dosage&lt;br&gt;&lt;/p&gt;" style="ellipse;whiteSpace=wrap;html=1;fontSize=15;" vertex="1" parent="1">
          <mxGeometry x="196.5" y="1245" width="88.5" height="62" as="geometry" />
        </mxCell>
        <mxCell id="sK9uzCpT_N-U4nyebc3v-102" value="&lt;p style=&quot;line-height: 100%;&quot;&gt;status&lt;br&gt;&lt;/p&gt;" style="ellipse;whiteSpace=wrap;html=1;fontSize=15;" vertex="1" parent="1">
          <mxGeometry x="-82.5" y="1292" width="98.5" height="62" as="geometry" />
        </mxCell>
        <mxCell id="sK9uzCpT_N-U4nyebc3v-103" value="" style="endArrow=none;html=1;rounded=0;fontSize=12;startSize=8;endSize=8;curved=1;exitX=0.5;exitY=0;exitDx=0;exitDy=0;entryX=0.5;entryY=1;entryDx=0;entryDy=0;" edge="1" parent="1" source="sK9uzCpT_N-U4nyebc3v-101">
          <mxGeometry width="50" height="50" relative="1" as="geometry">
            <mxPoint x="316.5" y="1223" as="sourcePoint" />
            <mxPoint x="76.5" y="1085" as="targetPoint" />
          </mxGeometry>
        </mxCell>
        <mxCell id="sK9uzCpT_N-U4nyebc3v-104" value="" style="endArrow=none;html=1;rounded=0;fontSize=12;startSize=8;endSize=8;curved=1;exitX=0.671;exitY=0.988;exitDx=0;exitDy=0;exitPerimeter=0;entryX=0.591;entryY=0.015;entryDx=0;entryDy=0;entryPerimeter=0;" edge="1" parent="1" source="sK9uzCpT_N-U4nyebc3v-97" target="sK9uzCpT_N-U4nyebc3v-102">
          <mxGeometry width="50" height="50" relative="1" as="geometry">
            <mxPoint x="-31.49000000000001" y="1113" as="sourcePoint" />
            <mxPoint x="-13.503889577116524" y="1298.039134344167" as="targetPoint" />
          </mxGeometry>
        </mxCell>
        <mxCell id="sK9uzCpT_N-U4nyebc3v-105" value="" style="endArrow=none;html=1;rounded=0;fontSize=12;startSize=8;endSize=8;curved=1;entryX=0.133;entryY=0.967;entryDx=0;entryDy=0;entryPerimeter=0;exitX=0.5;exitY=0;exitDx=0;exitDy=0;" edge="1" parent="1" source="sK9uzCpT_N-U4nyebc3v-98">
          <mxGeometry width="50" height="50" relative="1" as="geometry">
            <mxPoint x="99.16771779335431" y="1284.214899253036" as="sourcePoint" />
            <mxPoint x="56.499999999999545" y="1107.9999999999995" as="targetPoint" />
          </mxGeometry>
        </mxCell>
        <mxCell id="sK9uzCpT_N-U4nyebc3v-107" value="" style="endArrow=none;html=1;rounded=0;fontSize=12;startSize=8;endSize=8;curved=1;exitX=0.345;exitY=1.02;exitDx=0;exitDy=0;entryX=0.5;entryY=0;entryDx=0;entryDy=0;exitPerimeter=0;" edge="1" parent="1" source="sK9uzCpT_N-U4nyebc3v-97" target="sK9uzCpT_N-U4nyebc3v-99">
          <mxGeometry width="50" height="50" relative="1" as="geometry">
            <mxPoint x="-1.8400000000000318" y="1108" as="sourcePoint" />
            <mxPoint x="-87.79499999999962" y="1263.4539999999997" as="targetPoint" />
            <Array as="points">
              <mxPoint x="-24.840000000000032" y="1130" />
            </Array>
          </mxGeometry>
        </mxCell>
        <mxCell id="sK9uzCpT_N-U4nyebc3v-108" value="" style="endArrow=none;html=1;rounded=0;fontSize=12;startSize=8;endSize=8;curved=1;strokeWidth=3;" edge="1" parent="1">
          <mxGeometry width="50" height="50" relative="1" as="geometry">
            <mxPoint x="75" y="1339" as="sourcePoint" />
            <mxPoint x="150" y="1339" as="targetPoint" />
          </mxGeometry>
        </mxCell>
        <mxCell id="sK9uzCpT_N-U4nyebc3v-114" value="Billing" style="rounded=1;whiteSpace=wrap;html=1;arcSize=12;spacing=2;fontSize=15;fillStyle=auto;fillColor=#dae8fc;strokeColor=#6c8ebf;" vertex="1" parent="1">
          <mxGeometry x="644" y="404" width="120" height="60" as="geometry" />
        </mxCell>
        <mxCell id="sK9uzCpT_N-U4nyebc3v-115" value="&lt;p style=&quot;line-height: 100%;&quot;&gt;bill_id&lt;br&gt;&lt;/p&gt;" style="ellipse;whiteSpace=wrap;html=1;fontSize=15;" vertex="1" parent="1">
          <mxGeometry x="606" y="170" width="120" height="62" as="geometry" />
        </mxCell>
        <mxCell id="sK9uzCpT_N-U4nyebc3v-117" value="&lt;p style=&quot;line-height: 100%;&quot;&gt;status&lt;br&gt;&lt;/p&gt;" style="ellipse;whiteSpace=wrap;html=1;fontSize=15;" vertex="1" parent="1">
          <mxGeometry x="975" y="347" width="120" height="62" as="geometry" />
        </mxCell>
        <mxCell id="sK9uzCpT_N-U4nyebc3v-118" style="edgeStyle=none;curved=1;rounded=0;orthogonalLoop=1;jettySize=auto;html=1;exitX=0.5;exitY=0;exitDx=0;exitDy=0;entryX=0.558;entryY=0.097;entryDx=0;entryDy=0;entryPerimeter=0;fontSize=12;startSize=8;endSize=8;" edge="1" parent="1" source="sK9uzCpT_N-U4nyebc3v-117" target="sK9uzCpT_N-U4nyebc3v-117">
          <mxGeometry relative="1" as="geometry" />
        </mxCell>
        <mxCell id="sK9uzCpT_N-U4nyebc3v-119" value="&lt;p style=&quot;line-height: 100%;&quot;&gt;amount&lt;br&gt;&lt;/p&gt;" style="ellipse;whiteSpace=wrap;html=1;fontSize=15;" vertex="1" parent="1">
          <mxGeometry x="770" y="170" width="120" height="62" as="geometry" />
        </mxCell>
        <mxCell id="sK9uzCpT_N-U4nyebc3v-120" value="&lt;p style=&quot;line-height: 100%;&quot;&gt;bill_date&lt;br&gt;&lt;/p&gt;" style="ellipse;whiteSpace=wrap;html=1;fontSize=15;" vertex="1" parent="1">
          <mxGeometry x="872" y="275" width="120" height="62" as="geometry" />
        </mxCell>
        <mxCell id="sK9uzCpT_N-U4nyebc3v-121" value="" style="endArrow=none;html=1;rounded=0;fontSize=12;startSize=8;endSize=8;curved=1;exitX=0.33;exitY=0.986;exitDx=0;exitDy=0;entryX=0.75;entryY=0;entryDx=0;entryDy=0;exitPerimeter=0;" edge="1" parent="1" source="sK9uzCpT_N-U4nyebc3v-119" target="sK9uzCpT_N-U4nyebc3v-114">
          <mxGeometry width="50" height="50" relative="1" as="geometry">
            <mxPoint x="498" y="350" as="sourcePoint" />
            <mxPoint x="620" y="333" as="targetPoint" />
          </mxGeometry>
        </mxCell>
        <mxCell id="sK9uzCpT_N-U4nyebc3v-122" value="" style="endArrow=none;html=1;rounded=0;fontSize=12;startSize=8;endSize=8;curved=1;exitX=1;exitY=0.5;exitDx=0;exitDy=0;entryX=0.1;entryY=0.177;entryDx=0;entryDy=0;entryPerimeter=0;" edge="1" parent="1" source="sK9uzCpT_N-U4nyebc3v-114" target="sK9uzCpT_N-U4nyebc3v-120">
          <mxGeometry width="50" height="50" relative="1" as="geometry">
            <mxPoint x="814" y="419" as="sourcePoint" />
            <mxPoint x="936" y="402" as="targetPoint" />
          </mxGeometry>
        </mxCell>
        <mxCell id="sK9uzCpT_N-U4nyebc3v-126" value="" style="endArrow=none;html=1;rounded=0;fontSize=12;startSize=8;endSize=8;curved=1;strokeWidth=3;" edge="1" parent="1">
          <mxGeometry width="50" height="50" relative="1" as="geometry">
            <mxPoint x="628.5" y="218" as="sourcePoint" />
            <mxPoint x="703.5" y="218" as="targetPoint" />
            <Array as="points" />
          </mxGeometry>
        </mxCell>
        <mxCell id="sK9uzCpT_N-U4nyebc3v-137" value="" style="endArrow=none;html=1;rounded=0;fontSize=12;startSize=8;endSize=8;curved=1;exitX=1;exitY=0.75;exitDx=0;exitDy=0;entryX=0;entryY=0.5;entryDx=0;entryDy=0;" edge="1" parent="1" source="sK9uzCpT_N-U4nyebc3v-114" target="sK9uzCpT_N-U4nyebc3v-117">
          <mxGeometry width="50" height="50" relative="1" as="geometry">
            <mxPoint x="832" y="416.01" as="sourcePoint" />
            <mxPoint x="926" y="543.9840000000002" as="targetPoint" />
          </mxGeometry>
        </mxCell>
        <mxCell id="sK9uzCpT_N-U4nyebc3v-143" value="Rooms" style="rounded=1;whiteSpace=wrap;html=1;arcSize=12;spacing=2;fontSize=15;fillStyle=auto;fillColor=#dae8fc;strokeColor=#6c8ebf;" vertex="1" parent="1">
          <mxGeometry x="-2262.5" y="1615" width="120" height="60" as="geometry" />
        </mxCell>
        <mxCell id="sK9uzCpT_N-U4nyebc3v-144" value="&lt;p style=&quot;line-height: 100%;&quot;&gt;room_id&lt;br&gt;&lt;/p&gt;" style="ellipse;whiteSpace=wrap;html=1;fontSize=15;" vertex="1" parent="1">
          <mxGeometry x="-2420" y="1726.98" width="120" height="62" as="geometry" />
        </mxCell>
        <mxCell id="sK9uzCpT_N-U4nyebc3v-148" value="&lt;p style=&quot;line-height: 100%;&quot;&gt;room_number&lt;br&gt;&lt;/p&gt;" style="ellipse;whiteSpace=wrap;html=1;fontSize=15;" vertex="1" parent="1">
          <mxGeometry x="-2434" y="1626" width="120" height="62" as="geometry" />
        </mxCell>
        <mxCell id="sK9uzCpT_N-U4nyebc3v-149" value="&lt;p style=&quot;line-height: 100%;&quot;&gt;room_type&lt;br&gt;&lt;/p&gt;" style="ellipse;whiteSpace=wrap;html=1;fontSize=15;" vertex="1" parent="1">
          <mxGeometry x="-2405" y="1543.98" width="120" height="62" as="geometry" />
        </mxCell>
        <mxCell id="sK9uzCpT_N-U4nyebc3v-151" value="" style="endArrow=none;html=1;rounded=0;fontSize=12;startSize=8;endSize=8;curved=1;exitX=0;exitY=0;exitDx=0;exitDy=0;entryX=1;entryY=1;entryDx=0;entryDy=0;" edge="1" parent="1" source="sK9uzCpT_N-U4nyebc3v-143" target="sK9uzCpT_N-U4nyebc3v-149">
          <mxGeometry width="50" height="50" relative="1" as="geometry">
            <mxPoint x="-2541.5" y="1491.98" as="sourcePoint" />
            <mxPoint x="-2325" y="1616" as="targetPoint" />
          </mxGeometry>
        </mxCell>
        <mxCell id="sK9uzCpT_N-U4nyebc3v-152" value="" style="endArrow=none;html=1;rounded=0;fontSize=12;startSize=8;endSize=8;curved=1;entryX=0;entryY=0.75;entryDx=0;entryDy=0;exitX=0.5;exitY=0;exitDx=0;exitDy=0;" edge="1" parent="1" source="sK9uzCpT_N-U4nyebc3v-144" target="sK9uzCpT_N-U4nyebc3v-143">
          <mxGeometry width="50" height="50" relative="1" as="geometry">
            <mxPoint x="-2438.5575087300786" y="1668.891476520996" as="sourcePoint" />
            <mxPoint x="-2381.54" y="1557" as="targetPoint" />
          </mxGeometry>
        </mxCell>
        <mxCell id="sK9uzCpT_N-U4nyebc3v-154" value="" style="endArrow=none;html=1;rounded=0;fontSize=12;startSize=8;endSize=8;curved=1;strokeWidth=3;" edge="1" parent="1">
          <mxGeometry width="50" height="50" relative="1" as="geometry">
            <mxPoint x="-2397.5" y="1773.98" as="sourcePoint" />
            <mxPoint x="-2322.5" y="1773.98" as="targetPoint" />
            <Array as="points" />
          </mxGeometry>
        </mxCell>
        <mxCell id="sK9uzCpT_N-U4nyebc3v-161" value="Departments" style="rounded=1;whiteSpace=wrap;html=1;arcSize=12;spacing=2;fontSize=15;fillStyle=auto;fillColor=#dae8fc;strokeColor=#6c8ebf;" vertex="1" parent="1">
          <mxGeometry x="-1524" y="1403" width="120" height="60" as="geometry" />
        </mxCell>
        <mxCell id="sK9uzCpT_N-U4nyebc3v-162" value="&lt;p style=&quot;line-height: 100%;&quot;&gt;department_id,&lt;br&gt;&lt;/p&gt;" style="ellipse;whiteSpace=wrap;html=1;fontSize=15;" vertex="1" parent="1">
          <mxGeometry x="-1342" y="1654.98" width="120" height="62" as="geometry" />
        </mxCell>
        <mxCell id="sK9uzCpT_N-U4nyebc3v-163" value="&lt;p style=&quot;line-height: 100%;&quot;&gt;department_name&lt;br&gt;&lt;/p&gt;" style="ellipse;whiteSpace=wrap;html=1;fontSize=15;" vertex="1" parent="1">
          <mxGeometry x="-1277" y="1546.98" width="132" height="62" as="geometry" />
        </mxCell>
        <mxCell id="sK9uzCpT_N-U4nyebc3v-164" value="&lt;p style=&quot;line-height: 100%;&quot;&gt;location&lt;br&gt;&lt;/p&gt;" style="ellipse;whiteSpace=wrap;html=1;fontSize=15;" vertex="1" parent="1">
          <mxGeometry x="-1186" y="1433.98" width="120" height="62" as="geometry" />
        </mxCell>
        <mxCell id="sK9uzCpT_N-U4nyebc3v-165" value="" style="endArrow=none;html=1;rounded=0;fontSize=12;startSize=8;endSize=8;curved=1;exitX=0.5;exitY=0;exitDx=0;exitDy=0;entryX=1;entryY=1;entryDx=0;entryDy=0;" edge="1" parent="1" source="sK9uzCpT_N-U4nyebc3v-163" target="sK9uzCpT_N-U4nyebc3v-161">
          <mxGeometry width="50" height="50" relative="1" as="geometry">
            <mxPoint x="-1171" y="1566.98" as="sourcePoint" />
            <mxPoint x="-1388" y="1474.98" as="targetPoint" />
          </mxGeometry>
        </mxCell>
        <mxCell id="sK9uzCpT_N-U4nyebc3v-166" value="" style="endArrow=none;html=1;rounded=0;fontSize=12;startSize=8;endSize=8;curved=1;exitX=1;exitY=0.5;exitDx=0;exitDy=0;entryX=0.018;entryY=0.276;entryDx=0;entryDy=0;entryPerimeter=0;" edge="1" parent="1" source="sK9uzCpT_N-U4nyebc3v-161" target="sK9uzCpT_N-U4nyebc3v-164">
          <mxGeometry width="50" height="50" relative="1" as="geometry">
            <mxPoint x="-1339" y="1406.54" as="sourcePoint" />
            <mxPoint x="-1110.1161285059961" y="1394.981935747002" as="targetPoint" />
          </mxGeometry>
        </mxCell>
        <mxCell id="sK9uzCpT_N-U4nyebc3v-167" value="" style="endArrow=none;html=1;rounded=0;fontSize=12;startSize=8;endSize=8;curved=1;entryX=0.642;entryY=1.007;entryDx=0;entryDy=0;entryPerimeter=0;exitX=0.5;exitY=0;exitDx=0;exitDy=0;" edge="1" parent="1" source="sK9uzCpT_N-U4nyebc3v-162" target="sK9uzCpT_N-U4nyebc3v-161">
          <mxGeometry width="50" height="50" relative="1" as="geometry">
            <mxPoint x="-1564.5575087300786" y="1603.891476520996" as="sourcePoint" />
            <mxPoint x="-1496" y="1230.98" as="targetPoint" />
          </mxGeometry>
        </mxCell>
        <mxCell id="sK9uzCpT_N-U4nyebc3v-169" value="" style="endArrow=none;html=1;rounded=0;fontSize=12;startSize=8;endSize=8;curved=1;strokeWidth=3;" edge="1" parent="1">
          <mxGeometry width="50" height="50" relative="1" as="geometry">
            <mxPoint x="-1321.5" y="1701.98" as="sourcePoint" />
            <mxPoint x="-1246.5" y="1701.98" as="targetPoint" />
            <Array as="points" />
          </mxGeometry>
        </mxCell>
        <mxCell id="sK9uzCpT_N-U4nyebc3v-173" value="Staff" style="rounded=1;whiteSpace=wrap;html=1;arcSize=12;spacing=2;fontSize=15;fillStyle=auto;fillColor=#dae8fc;strokeColor=#6c8ebf;" vertex="1" parent="1">
          <mxGeometry x="-1937" y="1768" width="120" height="60" as="geometry" />
        </mxCell>
        <mxCell id="sK9uzCpT_N-U4nyebc3v-174" value="&lt;p style=&quot;line-height: 100%;&quot;&gt;staff_id&lt;br&gt;&lt;/p&gt;" style="ellipse;whiteSpace=wrap;html=1;fontSize=15;" vertex="1" parent="1">
          <mxGeometry x="-1841" y="2013" width="120" height="62" as="geometry" />
        </mxCell>
        <mxCell id="sK9uzCpT_N-U4nyebc3v-175" value="&lt;p style=&quot;line-height: 100%;&quot;&gt;first_name&lt;br&gt;&lt;/p&gt;" style="ellipse;whiteSpace=wrap;html=1;fontSize=15;" vertex="1" parent="1">
          <mxGeometry x="-2114" y="1971" width="135" height="62" as="geometry" />
        </mxCell>
        <mxCell id="sK9uzCpT_N-U4nyebc3v-176" style="edgeStyle=none;curved=1;rounded=0;orthogonalLoop=1;jettySize=auto;html=1;exitX=0.5;exitY=0;exitDx=0;exitDy=0;entryX=0.558;entryY=0.097;entryDx=0;entryDy=0;entryPerimeter=0;fontSize=12;startSize=8;endSize=8;" edge="1" parent="1" source="sK9uzCpT_N-U4nyebc3v-175" target="sK9uzCpT_N-U4nyebc3v-175">
          <mxGeometry relative="1" as="geometry" />
        </mxCell>
        <mxCell id="sK9uzCpT_N-U4nyebc3v-177" value="&lt;p style=&quot;line-height: 100%;&quot;&gt;role&lt;br&gt;&lt;/p&gt;" style="ellipse;whiteSpace=wrap;html=1;fontSize=15;" vertex="1" parent="1">
          <mxGeometry x="-1697" y="1966" width="120" height="62" as="geometry" />
        </mxCell>
        <mxCell id="sK9uzCpT_N-U4nyebc3v-178" value="&lt;p style=&quot;line-height: 100%;&quot;&gt;last_name&lt;br&gt;&lt;/p&gt;" style="ellipse;whiteSpace=wrap;html=1;fontSize=15;" vertex="1" parent="1">
          <mxGeometry x="-1976" y="2013" width="120" height="62" as="geometry" />
        </mxCell>
        <mxCell id="sK9uzCpT_N-U4nyebc3v-179" value="" style="endArrow=none;html=1;rounded=0;fontSize=12;startSize=8;endSize=8;curved=1;exitX=0.5;exitY=0;exitDx=0;exitDy=0;entryX=0.5;entryY=1;entryDx=0;entryDy=0;" edge="1" parent="1" source="sK9uzCpT_N-U4nyebc3v-177">
          <mxGeometry width="50" height="50" relative="1" as="geometry">
            <mxPoint x="-1577" y="1944" as="sourcePoint" />
            <mxPoint x="-1817" y="1806" as="targetPoint" />
          </mxGeometry>
        </mxCell>
        <mxCell id="sK9uzCpT_N-U4nyebc3v-180" value="" style="endArrow=none;html=1;rounded=0;fontSize=12;startSize=8;endSize=8;curved=1;exitX=0.671;exitY=0.988;exitDx=0;exitDy=0;exitPerimeter=0;entryX=0.591;entryY=0.015;entryDx=0;entryDy=0;entryPerimeter=0;" edge="1" parent="1" source="sK9uzCpT_N-U4nyebc3v-173" target="sK9uzCpT_N-U4nyebc3v-178">
          <mxGeometry width="50" height="50" relative="1" as="geometry">
            <mxPoint x="-1924.99" y="1834" as="sourcePoint" />
            <mxPoint x="-1907.0038895771165" y="2019.039134344167" as="targetPoint" />
          </mxGeometry>
        </mxCell>
        <mxCell id="sK9uzCpT_N-U4nyebc3v-181" value="" style="endArrow=none;html=1;rounded=0;fontSize=12;startSize=8;endSize=8;curved=1;entryX=0.133;entryY=0.967;entryDx=0;entryDy=0;entryPerimeter=0;exitX=0.5;exitY=0;exitDx=0;exitDy=0;" edge="1" parent="1" source="sK9uzCpT_N-U4nyebc3v-174">
          <mxGeometry width="50" height="50" relative="1" as="geometry">
            <mxPoint x="-1794.3322822066457" y="2005.214899253036" as="sourcePoint" />
            <mxPoint x="-1837.0000000000005" y="1828.9999999999995" as="targetPoint" />
          </mxGeometry>
        </mxCell>
        <mxCell id="sK9uzCpT_N-U4nyebc3v-183" value="" style="endArrow=none;html=1;rounded=0;fontSize=12;startSize=8;endSize=8;curved=1;exitX=0.345;exitY=1.02;exitDx=0;exitDy=0;entryX=0.983;entryY=0.217;entryDx=0;entryDy=0;entryPerimeter=0;exitPerimeter=0;" edge="1" parent="1" source="sK9uzCpT_N-U4nyebc3v-173" target="sK9uzCpT_N-U4nyebc3v-175">
          <mxGeometry width="50" height="50" relative="1" as="geometry">
            <mxPoint x="-1895.3400000000001" y="1829" as="sourcePoint" />
            <mxPoint x="-1957.0001895781584" y="1996.1303723785863" as="targetPoint" />
            <Array as="points">
              <mxPoint x="-1918.3400000000001" y="1851" />
            </Array>
          </mxGeometry>
        </mxCell>
        <mxCell id="sK9uzCpT_N-U4nyebc3v-184" value="" style="endArrow=none;html=1;rounded=0;fontSize=12;startSize=8;endSize=8;curved=1;strokeWidth=3;" edge="1" parent="1">
          <mxGeometry width="50" height="50" relative="1" as="geometry">
            <mxPoint x="-1818.5" y="2060" as="sourcePoint" />
            <mxPoint x="-1743.5" y="2060" as="targetPoint" />
          </mxGeometry>
        </mxCell>
        <mxCell id="sK9uzCpT_N-U4nyebc3v-185" value="&lt;p style=&quot;line-height: 100%;&quot;&gt;email&lt;br&gt;&lt;/p&gt;" style="ellipse;whiteSpace=wrap;html=1;fontSize=15;" vertex="1" parent="1">
          <mxGeometry x="-2173" y="1884" width="120" height="62" as="geometry" />
        </mxCell>
        <mxCell id="sK9uzCpT_N-U4nyebc3v-187" value="" style="endArrow=none;html=1;rounded=0;fontSize=12;startSize=8;endSize=8;curved=1;entryX=0.133;entryY=0.967;entryDx=0;entryDy=0;entryPerimeter=0;exitX=0.967;exitY=0.258;exitDx=0;exitDy=0;exitPerimeter=0;" edge="1" parent="1" source="sK9uzCpT_N-U4nyebc3v-185">
          <mxGeometry width="50" height="50" relative="1" as="geometry">
            <mxPoint x="-2022" y="1972" as="sourcePoint" />
            <mxPoint x="-1939" y="1801" as="targetPoint" />
          </mxGeometry>
        </mxCell>
        <mxCell id="sK9uzCpT_N-U4nyebc3v-190" value="&lt;p style=&quot;line-height: 100%;&quot;&gt;phone&lt;br&gt;&lt;/p&gt;" style="ellipse;whiteSpace=wrap;html=1;fontSize=15;" vertex="1" parent="1">
          <mxGeometry x="-1636" y="1881" width="120" height="62" as="geometry" />
        </mxCell>
        <mxCell id="sK9uzCpT_N-U4nyebc3v-192" value="" style="endArrow=none;html=1;rounded=0;fontSize=12;startSize=8;endSize=8;curved=1;exitX=0;exitY=0.5;exitDx=0;exitDy=0;entryX=1;entryY=0.25;entryDx=0;entryDy=0;" edge="1" parent="1" source="sK9uzCpT_N-U4nyebc3v-190" target="sK9uzCpT_N-U4nyebc3v-173">
          <mxGeometry width="50" height="50" relative="1" as="geometry">
            <mxPoint x="-1621" y="1934" as="sourcePoint" />
            <mxPoint x="-1801" y="1774" as="targetPoint" />
          </mxGeometry>
        </mxCell>
        <mxCell id="sK9uzCpT_N-U4nyebc3v-195" value="Medical Record" style="rounded=1;whiteSpace=wrap;html=1;arcSize=12;spacing=2;fontSize=15;fillStyle=auto;fillColor=#dae8fc;strokeColor=#6c8ebf;" vertex="1" parent="1">
          <mxGeometry x="-53" y="693" width="120" height="60" as="geometry" />
        </mxCell>
        <mxCell id="sK9uzCpT_N-U4nyebc3v-196" value="&lt;p style=&quot;line-height: 100%;&quot;&gt;diagnosis&lt;br&gt;&lt;/p&gt;" style="ellipse;whiteSpace=wrap;html=1;fontSize=15;" vertex="1" parent="1">
          <mxGeometry x="-67.5" y="876" width="120" height="62" as="geometry" />
        </mxCell>
        <mxCell id="sK9uzCpT_N-U4nyebc3v-197" value="&lt;p style=&quot;line-height: 100%;&quot;&gt;record_Id&lt;br&gt;&lt;/p&gt;" style="ellipse;whiteSpace=wrap;html=1;fontSize=15;" vertex="1" parent="1">
          <mxGeometry x="-53" y="567" width="120" height="62" as="geometry" />
        </mxCell>
        <mxCell id="sK9uzCpT_N-U4nyebc3v-198" value="&lt;p style=&quot;line-height: 100%;&quot;&gt;record_date&lt;br&gt;&lt;/p&gt;" style="ellipse;whiteSpace=wrap;html=1;fontSize=15;" vertex="1" parent="1">
          <mxGeometry x="-219" y="720" width="120" height="62" as="geometry" />
        </mxCell>
        <mxCell id="sK9uzCpT_N-U4nyebc3v-199" value="&lt;p style=&quot;line-height: 100%;&quot;&gt;treatment&lt;br&gt;&lt;/p&gt;" style="ellipse;whiteSpace=wrap;html=1;fontSize=15;" vertex="1" parent="1">
          <mxGeometry x="-136" y="790" width="120" height="62" as="geometry" />
        </mxCell>
        <mxCell id="sK9uzCpT_N-U4nyebc3v-200" value="" style="endArrow=none;html=1;rounded=0;fontSize=12;startSize=8;endSize=8;curved=1;exitX=1;exitY=0.5;exitDx=0;exitDy=0;entryX=0;entryY=0.5;entryDx=0;entryDy=0;" edge="1" parent="1" source="sK9uzCpT_N-U4nyebc3v-198" target="sK9uzCpT_N-U4nyebc3v-195">
          <mxGeometry width="50" height="50" relative="1" as="geometry">
            <mxPoint x="-173" y="746" as="sourcePoint" />
            <mxPoint x="-56" y="720" as="targetPoint" />
            <Array as="points">
              <mxPoint x="-91" y="732" />
            </Array>
          </mxGeometry>
        </mxCell>
        <mxCell id="sK9uzCpT_N-U4nyebc3v-201" value="" style="endArrow=none;html=1;rounded=0;fontSize=12;startSize=8;endSize=8;curved=1;exitX=0.75;exitY=1;exitDx=0;exitDy=0;entryX=0.5;entryY=0;entryDx=0;entryDy=0;" edge="1" parent="1" source="sK9uzCpT_N-U4nyebc3v-195" target="sK9uzCpT_N-U4nyebc3v-196">
          <mxGeometry width="50" height="50" relative="1" as="geometry">
            <mxPoint x="58" y="730" as="sourcePoint" />
            <mxPoint x="124" y="722" as="targetPoint" />
            <Array as="points">
              <mxPoint x="89" y="734" />
            </Array>
          </mxGeometry>
        </mxCell>
        <mxCell id="sK9uzCpT_N-U4nyebc3v-202" value="" style="endArrow=none;html=1;rounded=0;fontSize=12;startSize=8;endSize=8;curved=1;exitX=0.913;exitY=0.258;exitDx=0;exitDy=0;exitPerimeter=0;entryX=0.5;entryY=1;entryDx=0;entryDy=0;" edge="1" parent="1" source="sK9uzCpT_N-U4nyebc3v-199" target="sK9uzCpT_N-U4nyebc3v-195">
          <mxGeometry width="50" height="50" relative="1" as="geometry">
            <mxPoint x="1" y="816" as="sourcePoint" />
            <mxPoint x="67" y="808" as="targetPoint" />
            <Array as="points">
              <mxPoint x="32" y="820" />
            </Array>
          </mxGeometry>
        </mxCell>
        <mxCell id="sK9uzCpT_N-U4nyebc3v-203" value="" style="endArrow=none;html=1;rounded=0;fontSize=12;startSize=8;endSize=8;curved=1;exitX=0.5;exitY=0;exitDx=0;exitDy=0;entryX=0.5;entryY=1;entryDx=0;entryDy=0;" edge="1" parent="1" source="sK9uzCpT_N-U4nyebc3v-195" target="sK9uzCpT_N-U4nyebc3v-197">
          <mxGeometry width="50" height="50" relative="1" as="geometry">
            <mxPoint x="-4" y="656" as="sourcePoint" />
            <mxPoint x="62" y="648" as="targetPoint" />
            <Array as="points">
              <mxPoint x="27" y="660" />
            </Array>
          </mxGeometry>
        </mxCell>
        <mxCell id="sK9uzCpT_N-U4nyebc3v-204" value="Have" style="rhombus;whiteSpace=wrap;html=1;fontSize=15;fillColor=#dae8fc;strokeColor=#6c8ebf;rounded=1;arcSize=12;spacing=2;fillStyle=auto;" vertex="1" parent="1">
          <mxGeometry x="172.5" y="469" width="80" height="80" as="geometry" />
        </mxCell>
        <mxCell id="sK9uzCpT_N-U4nyebc3v-210" value="" style="edgeStyle=orthogonalEdgeStyle;fontSize=12;html=1;endArrow=ERoneToMany;rounded=0;startSize=8;endSize=8;entryX=0;entryY=0;entryDx=0;entryDy=0;exitX=0.5;exitY=1;exitDx=0;exitDy=0;" edge="1" parent="1" source="sK9uzCpT_N-U4nyebc3v-212" target="sK9uzCpT_N-U4nyebc3v-195">
          <mxGeometry width="100" height="100" relative="1" as="geometry">
            <mxPoint x="-591.5" y="643" as="sourcePoint" />
            <mxPoint x="256.5" y="896" as="targetPoint" />
          </mxGeometry>
        </mxCell>
        <mxCell id="sK9uzCpT_N-U4nyebc3v-211" value="" style="edgeStyle=orthogonalEdgeStyle;fontSize=12;html=1;endArrow=ERone;endFill=1;rounded=0;startSize=8;endSize=8;exitX=0.5;exitY=0;exitDx=0;exitDy=0;entryX=1;entryY=1;entryDx=0;entryDy=0;" edge="1" parent="1" source="sK9uzCpT_N-U4nyebc3v-212" target="sK9uzCpT_N-U4nyebc3v-20">
          <mxGeometry width="100" height="100" relative="1" as="geometry">
            <mxPoint x="-627.5" y="663" as="sourcePoint" />
            <mxPoint x="-601" y="366" as="targetPoint" />
          </mxGeometry>
        </mxCell>
        <mxCell id="sK9uzCpT_N-U4nyebc3v-212" value="Gives" style="rhombus;whiteSpace=wrap;html=1;fontSize=15;fillColor=#dae8fc;strokeColor=#6c8ebf;rounded=1;arcSize=12;spacing=2;fillStyle=auto;" vertex="1" parent="1">
          <mxGeometry x="-391" y="461" width="80" height="80" as="geometry" />
        </mxCell>
        <mxCell id="sK9uzCpT_N-U4nyebc3v-213" value="" style="edgeStyle=orthogonalEdgeStyle;fontSize=12;html=1;endArrow=ERoneToMany;rounded=0;startSize=8;endSize=8;entryX=1;entryY=0;entryDx=0;entryDy=0;exitX=0.5;exitY=1;exitDx=0;exitDy=0;" edge="1" parent="1" source="sK9uzCpT_N-U4nyebc3v-204" target="sK9uzCpT_N-U4nyebc3v-195">
          <mxGeometry width="100" height="100" relative="1" as="geometry">
            <mxPoint x="182.5" y="584" as="sourcePoint" />
            <mxPoint x="152.5" y="802" as="targetPoint" />
          </mxGeometry>
        </mxCell>
        <mxCell id="sK9uzCpT_N-U4nyebc3v-214" value="Contains" style="rhombus;whiteSpace=wrap;html=1;fontSize=15;fillColor=#dae8fc;strokeColor=#6c8ebf;rounded=1;arcSize=12;spacing=2;fillStyle=auto;" vertex="1" parent="1">
          <mxGeometry x="-1659" y="964" width="80" height="80" as="geometry" />
        </mxCell>
        <mxCell id="sK9uzCpT_N-U4nyebc3v-217" value="" style="edgeStyle=orthogonalEdgeStyle;fontSize=12;html=1;endArrow=ERoneToMany;rounded=0;startSize=8;endSize=8;entryX=0.75;entryY=1;entryDx=0;entryDy=0;exitX=0;exitY=0.5;exitDx=0;exitDy=0;" edge="1" parent="1" source="sK9uzCpT_N-U4nyebc3v-214" target="sK9uzCpT_N-U4nyebc3v-76">
          <mxGeometry width="100" height="100" relative="1" as="geometry">
            <mxPoint x="-1638" y="1061.5" as="sourcePoint" />
            <mxPoint x="-1742.0000000000002" y="478" as="targetPoint" />
          </mxGeometry>
        </mxCell>
        <mxCell id="sK9uzCpT_N-U4nyebc3v-218" value="" style="edgeStyle=orthogonalEdgeStyle;fontSize=12;html=1;endArrow=ERoneToMany;rounded=0;startSize=8;endSize=8;entryX=0.443;entryY=0.999;entryDx=0;entryDy=0;entryPerimeter=0;" edge="1" parent="1" target="sK9uzCpT_N-U4nyebc3v-61">
          <mxGeometry width="100" height="100" relative="1" as="geometry">
            <mxPoint x="-1263" y="1109" as="sourcePoint" />
            <mxPoint x="-1216" y="1189" as="targetPoint" />
          </mxGeometry>
        </mxCell>
        <mxCell id="sK9uzCpT_N-U4nyebc3v-220" style="edgeStyle=none;curved=1;rounded=0;orthogonalLoop=1;jettySize=auto;html=1;exitX=0.5;exitY=1;exitDx=0;exitDy=0;entryX=0.5;entryY=0;entryDx=0;entryDy=0;fontSize=12;startSize=8;endSize=8;" edge="1" parent="1" source="sK9uzCpT_N-U4nyebc3v-219" target="sK9uzCpT_N-U4nyebc3v-214">
          <mxGeometry relative="1" as="geometry" />
        </mxCell>
        <mxCell id="sK9uzCpT_N-U4nyebc3v-219" value="med_date" style="ellipse;whiteSpace=wrap;html=1;fontSize=15;" vertex="1" parent="1">
          <mxGeometry x="-1671" y="852" width="104" height="62" as="geometry" />
        </mxCell>
        <mxCell id="sK9uzCpT_N-U4nyebc3v-221" value="Pay" style="rhombus;whiteSpace=wrap;html=1;fontSize=15;fillColor=#dae8fc;strokeColor=#6c8ebf;rounded=1;arcSize=12;spacing=2;fillStyle=auto;" vertex="1" parent="1">
          <mxGeometry x="403" y="226" width="80" height="80" as="geometry" />
        </mxCell>
        <mxCell id="sK9uzCpT_N-U4nyebc3v-223" value="" style="edgeStyle=orthogonalEdgeStyle;fontSize=12;html=1;endArrow=ERoneToMany;rounded=0;startSize=8;endSize=8;entryX=0;entryY=0.75;entryDx=0;entryDy=0;exitX=1;exitY=0.5;exitDx=0;exitDy=0;" edge="1" parent="1" source="sK9uzCpT_N-U4nyebc3v-221" target="sK9uzCpT_N-U4nyebc3v-114">
          <mxGeometry width="100" height="100" relative="1" as="geometry">
            <mxPoint x="467" y="371" as="sourcePoint" />
            <mxPoint x="345" y="586" as="targetPoint" />
          </mxGeometry>
        </mxCell>
        <mxCell id="sK9uzCpT_N-U4nyebc3v-225" value="" style="edgeStyle=entityRelationEdgeStyle;fontSize=12;html=1;endArrow=ERone;endFill=1;rounded=0;startSize=8;endSize=8;curved=1;exitX=0;exitY=0.5;exitDx=0;exitDy=0;entryX=1;entryY=1;entryDx=0;entryDy=0;" edge="1" parent="1" source="sK9uzCpT_N-U4nyebc3v-221" target="sK9uzCpT_N-U4nyebc3v-1">
          <mxGeometry width="100" height="100" relative="1" as="geometry">
            <mxPoint x="329" y="515" as="sourcePoint" />
            <mxPoint x="301" y="270" as="targetPoint" />
          </mxGeometry>
        </mxCell>
        <mxCell id="sK9uzCpT_N-U4nyebc3v-226" value="Have" style="rhombus;whiteSpace=wrap;html=1;fontSize=15;fillColor=#dae8fc;strokeColor=#6c8ebf;rounded=1;arcSize=12;spacing=2;fillStyle=auto;" vertex="1" parent="1">
          <mxGeometry x="369" y="702" width="80" height="80" as="geometry" />
        </mxCell>
        <mxCell id="sK9uzCpT_N-U4nyebc3v-227" value="" style="edgeStyle=orthogonalEdgeStyle;fontSize=12;html=1;endArrow=ERone;endFill=1;rounded=0;startSize=8;endSize=8;entryX=0.75;entryY=1;entryDx=0;entryDy=0;" edge="1" parent="1" source="sK9uzCpT_N-U4nyebc3v-226" target="sK9uzCpT_N-U4nyebc3v-1">
          <mxGeometry width="100" height="100" relative="1" as="geometry">
            <mxPoint x="552" y="691" as="sourcePoint" />
            <mxPoint x="285" y="253" as="targetPoint" />
            <Array as="points">
              <mxPoint x="409" y="692" />
              <mxPoint x="404" y="692" />
              <mxPoint x="404" y="338" />
              <mxPoint x="142" y="338" />
            </Array>
          </mxGeometry>
        </mxCell>
        <mxCell id="sK9uzCpT_N-U4nyebc3v-229" value="Have" style="rhombus;whiteSpace=wrap;html=1;fontSize=15;fillColor=#dae8fc;strokeColor=#6c8ebf;rounded=1;arcSize=12;spacing=2;fillStyle=auto;" vertex="1" parent="1">
          <mxGeometry x="-542" y="662" width="80" height="80" as="geometry" />
        </mxCell>
        <mxCell id="sK9uzCpT_N-U4nyebc3v-231" value="" style="edgeStyle=orthogonalEdgeStyle;fontSize=12;html=1;endArrow=ERone;endFill=1;rounded=0;startSize=8;endSize=8;exitX=0.5;exitY=0;exitDx=0;exitDy=0;entryX=0.654;entryY=0.988;entryDx=0;entryDy=0;entryPerimeter=0;" edge="1" parent="1" source="sK9uzCpT_N-U4nyebc3v-229" target="sK9uzCpT_N-U4nyebc3v-20">
          <mxGeometry width="100" height="100" relative="1" as="geometry">
            <mxPoint x="-649" y="499" as="sourcePoint" />
            <mxPoint x="-731" y="396" as="targetPoint" />
          </mxGeometry>
        </mxCell>
        <mxCell id="sK9uzCpT_N-U4nyebc3v-233" value="" style="edgeStyle=orthogonalEdgeStyle;fontSize=12;html=1;endArrow=ERoneToMany;rounded=0;startSize=8;endSize=8;exitX=1;exitY=0.5;exitDx=0;exitDy=0;entryX=0;entryY=0.5;entryDx=0;entryDy=0;" edge="1" parent="1" source="sK9uzCpT_N-U4nyebc3v-229" target="sK9uzCpT_N-U4nyebc3v-97">
          <mxGeometry width="100" height="100" relative="1" as="geometry">
            <mxPoint x="-446" y="812" as="sourcePoint" />
            <mxPoint x="-602" y="1249" as="targetPoint" />
            <Array as="points">
              <mxPoint x="-233" y="702" />
              <mxPoint x="-233" y="1077" />
            </Array>
          </mxGeometry>
        </mxCell>
        <mxCell id="sK9uzCpT_N-U4nyebc3v-234" value="Serve" style="rhombus;whiteSpace=wrap;html=1;fontSize=15;fillColor=#dae8fc;strokeColor=#6c8ebf;rounded=1;arcSize=12;spacing=2;fillStyle=auto;" vertex="1" parent="1">
          <mxGeometry x="-2099" y="1352" width="80" height="80" as="geometry" />
        </mxCell>
        <mxCell id="sK9uzCpT_N-U4nyebc3v-238" value="&lt;p style=&quot;line-height: 100%;&quot;&gt;Hours&lt;br&gt;&lt;/p&gt;" style="ellipse;whiteSpace=wrap;html=1;fontSize=15;" vertex="1" parent="1">
          <mxGeometry x="-2304" y="1365" width="120" height="62" as="geometry" />
        </mxCell>
        <mxCell id="sK9uzCpT_N-U4nyebc3v-239" value="" style="endArrow=none;html=1;rounded=0;fontSize=12;startSize=8;endSize=8;curved=1;exitX=0;exitY=0.5;exitDx=0;exitDy=0;" edge="1" parent="1" source="sK9uzCpT_N-U4nyebc3v-234" target="sK9uzCpT_N-U4nyebc3v-238">
          <mxGeometry width="50" height="50" relative="1" as="geometry">
            <mxPoint x="-2065" y="1287" as="sourcePoint" />
            <mxPoint x="-2249" y="1296" as="targetPoint" />
          </mxGeometry>
        </mxCell>
        <mxCell id="sK9uzCpT_N-U4nyebc3v-240" value="" style="edgeStyle=orthogonalEdgeStyle;fontSize=12;html=1;endArrow=ERoneToMany;rounded=0;startSize=8;endSize=8;exitX=0.5;exitY=0;exitDx=0;exitDy=0;entryX=0.325;entryY=1.033;entryDx=0;entryDy=0;entryPerimeter=0;" edge="1" parent="1" source="sK9uzCpT_N-U4nyebc3v-234" target="sK9uzCpT_N-U4nyebc3v-44">
          <mxGeometry width="100" height="100" relative="1" as="geometry">
            <mxPoint x="-1936" y="1214" as="sourcePoint" />
            <mxPoint x="-1912" y="1304" as="targetPoint" />
            <Array as="points">
              <mxPoint x="-2059" y="1271" />
              <mxPoint x="-1844" y="1271" />
            </Array>
          </mxGeometry>
        </mxCell>
        <mxCell id="sK9uzCpT_N-U4nyebc3v-241" value="" style="edgeStyle=orthogonalEdgeStyle;fontSize=12;html=1;endArrow=ERoneToMany;rounded=0;startSize=8;endSize=8;exitX=0.5;exitY=1;exitDx=0;exitDy=0;entryX=0.5;entryY=0;entryDx=0;entryDy=0;" edge="1" parent="1" source="sK9uzCpT_N-U4nyebc3v-234" target="sK9uzCpT_N-U4nyebc3v-143">
          <mxGeometry width="100" height="100" relative="1" as="geometry">
            <mxPoint x="-2042" y="1311" as="sourcePoint" />
            <mxPoint x="-1624.5" y="1428" as="targetPoint" />
          </mxGeometry>
        </mxCell>
        <mxCell id="sK9uzCpT_N-U4nyebc3v-242" value="Belong" style="rhombus;whiteSpace=wrap;html=1;fontSize=15;fillColor=#dae8fc;strokeColor=#6c8ebf;rounded=1;arcSize=12;spacing=2;fillStyle=auto;" vertex="1" parent="1">
          <mxGeometry x="-617" y="1236" width="80" height="80" as="geometry" />
        </mxCell>
        <mxCell id="sK9uzCpT_N-U4nyebc3v-248" value="" style="edgeStyle=orthogonalEdgeStyle;fontSize=12;html=1;endArrow=ERoneToMany;rounded=0;startSize=8;endSize=8;exitX=0.5;exitY=0;exitDx=0;exitDy=0;entryX=0.5;entryY=1;entryDx=0;entryDy=0;" edge="1" parent="1" source="sK9uzCpT_N-U4nyebc3v-242" target="sK9uzCpT_N-U4nyebc3v-20">
          <mxGeometry width="100" height="100" relative="1" as="geometry">
            <mxPoint x="-1084.25" y="878" as="sourcePoint" />
            <mxPoint x="-757" y="391" as="targetPoint" />
          </mxGeometry>
        </mxCell>
        <mxCell id="sK9uzCpT_N-U4nyebc3v-249" value="Belong" style="rhombus;whiteSpace=wrap;html=1;fontSize=15;fillColor=#dae8fc;strokeColor=#6c8ebf;rounded=1;arcSize=12;spacing=2;fillStyle=auto;" vertex="1" parent="1">
          <mxGeometry x="-1631" y="1620" width="80" height="80" as="geometry" />
        </mxCell>
        <mxCell id="sK9uzCpT_N-U4nyebc3v-250" value="" style="edgeStyle=orthogonalEdgeStyle;fontSize=12;html=1;endArrow=ERone;endFill=1;rounded=0;startSize=8;endSize=8;exitX=0.5;exitY=1;exitDx=0;exitDy=0;" edge="1" parent="1" source="sK9uzCpT_N-U4nyebc3v-242" target="sK9uzCpT_N-U4nyebc3v-161">
          <mxGeometry width="100" height="100" relative="1" as="geometry">
            <mxPoint x="-473" y="1782" as="sourcePoint" />
            <mxPoint x="-707" y="1445" as="targetPoint" />
          </mxGeometry>
        </mxCell>
        <mxCell id="sK9uzCpT_N-U4nyebc3v-251" value="" style="edgeStyle=orthogonalEdgeStyle;fontSize=12;html=1;endArrow=ERone;endFill=1;rounded=0;startSize=8;endSize=8;exitX=0.5;exitY=0;exitDx=0;exitDy=0;entryX=0.112;entryY=0.982;entryDx=0;entryDy=0;entryPerimeter=0;" edge="1" parent="1" source="sK9uzCpT_N-U4nyebc3v-249" target="sK9uzCpT_N-U4nyebc3v-161">
          <mxGeometry width="100" height="100" relative="1" as="geometry">
            <mxPoint x="-526" y="1934" as="sourcePoint" />
            <mxPoint x="-40" y="2294" as="targetPoint" />
          </mxGeometry>
        </mxCell>
        <mxCell id="sK9uzCpT_N-U4nyebc3v-252" value="" style="edgeStyle=orthogonalEdgeStyle;fontSize=12;html=1;endArrow=ERoneToMany;rounded=0;startSize=8;endSize=8;exitX=0.5;exitY=1;exitDx=0;exitDy=0;entryX=0.5;entryY=0;entryDx=0;entryDy=0;" edge="1" parent="1" source="sK9uzCpT_N-U4nyebc3v-249" target="sK9uzCpT_N-U4nyebc3v-173">
          <mxGeometry width="100" height="100" relative="1" as="geometry">
            <mxPoint x="-662" y="2310" as="sourcePoint" />
            <mxPoint x="-772" y="1424" as="targetPoint" />
          </mxGeometry>
        </mxCell>
        <mxCell id="sK9uzCpT_N-U4nyebc3v-253" value="Belong" style="rhombus;whiteSpace=wrap;html=1;fontSize=15;fillColor=#dae8fc;strokeColor=#6c8ebf;rounded=1;arcSize=12;spacing=2;fillStyle=auto;" vertex="1" parent="1">
          <mxGeometry x="-1865" y="1433.98" width="80" height="80" as="geometry" />
        </mxCell>
        <mxCell id="sK9uzCpT_N-U4nyebc3v-254" value="" style="edgeStyle=orthogonalEdgeStyle;fontSize=12;html=1;endArrow=ERoneToMany;rounded=0;startSize=8;endSize=8;exitX=0;exitY=0.5;exitDx=0;exitDy=0;entryX=1;entryY=0.5;entryDx=0;entryDy=0;" edge="1" parent="1" source="sK9uzCpT_N-U4nyebc3v-253" target="sK9uzCpT_N-U4nyebc3v-143">
          <mxGeometry width="100" height="100" relative="1" as="geometry">
            <mxPoint x="-282.5" y="2023" as="sourcePoint" />
            <mxPoint x="-694.5" y="2200" as="targetPoint" />
          </mxGeometry>
        </mxCell>
        <mxCell id="sK9uzCpT_N-U4nyebc3v-255" value="" style="edgeStyle=orthogonalEdgeStyle;fontSize=12;html=1;endArrow=ERone;endFill=1;rounded=0;startSize=8;endSize=8;exitX=1;exitY=0.5;exitDx=0;exitDy=0;entryX=0;entryY=0.5;entryDx=0;entryDy=0;" edge="1" parent="1" source="sK9uzCpT_N-U4nyebc3v-253" target="sK9uzCpT_N-U4nyebc3v-161">
          <mxGeometry width="100" height="100" relative="1" as="geometry">
            <mxPoint x="-541" y="2037" as="sourcePoint" />
            <mxPoint x="-540" y="1774" as="targetPoint" />
          </mxGeometry>
        </mxCell>
        <mxCell id="sK9uzCpT_N-U4nyebc3v-256" value="Wirte" style="rhombus;whiteSpace=wrap;html=1;fontSize=15;fillColor=#dae8fc;strokeColor=#6c8ebf;rounded=1;arcSize=12;spacing=2;fillStyle=auto;" vertex="1" parent="1">
          <mxGeometry x="-1357" y="444" width="80" height="80" as="geometry" />
        </mxCell>
        <mxCell id="sK9uzCpT_N-U4nyebc3v-258" value="" style="edgeStyle=orthogonalEdgeStyle;fontSize=12;html=1;endArrow=ERone;endFill=1;rounded=0;startSize=8;endSize=8;exitX=1;exitY=0.5;exitDx=0;exitDy=0;entryX=0.25;entryY=1;entryDx=0;entryDy=0;" edge="1" parent="1" source="sK9uzCpT_N-U4nyebc3v-256" target="sK9uzCpT_N-U4nyebc3v-20">
          <mxGeometry width="100" height="100" relative="1" as="geometry">
            <mxPoint x="-626" y="768" as="sourcePoint" />
            <mxPoint x="-860" y="435" as="targetPoint" />
          </mxGeometry>
        </mxCell>
        <mxCell id="sK9uzCpT_N-U4nyebc3v-259" value="" style="edgeStyle=orthogonalEdgeStyle;fontSize=12;html=1;endArrow=ERoneToMany;rounded=0;startSize=8;endSize=8;exitX=0;exitY=0.5;exitDx=0;exitDy=0;" edge="1" parent="1" source="sK9uzCpT_N-U4nyebc3v-256" target="sK9uzCpT_N-U4nyebc3v-76">
          <mxGeometry width="100" height="100" relative="1" as="geometry">
            <mxPoint x="-877" y="611" as="sourcePoint" />
            <mxPoint x="-1379" y="442" as="targetPoint" />
          </mxGeometry>
        </mxCell>
        <mxCell id="sK9uzCpT_N-U4nyebc3v-260" value="Have" style="rhombus;whiteSpace=wrap;html=1;fontSize=15;fillColor=#dae8fc;strokeColor=#6c8ebf;rounded=1;arcSize=12;spacing=2;fillStyle=auto;" vertex="1" parent="1">
          <mxGeometry x="-537" y="935" width="80" height="80" as="geometry" />
        </mxCell>
        <mxCell id="sK9uzCpT_N-U4nyebc3v-263" value="" style="edgeStyle=orthogonalEdgeStyle;fontSize=12;html=1;endArrow=ERoneToMany;rounded=0;startSize=8;endSize=8;exitX=0;exitY=0.5;exitDx=0;exitDy=0;entryX=0.75;entryY=1;entryDx=0;entryDy=0;" edge="1" parent="1" source="sK9uzCpT_N-U4nyebc3v-260" target="sK9uzCpT_N-U4nyebc3v-61">
          <mxGeometry width="100" height="100" relative="1" as="geometry">
            <mxPoint x="-1595" y="682" as="sourcePoint" />
            <mxPoint x="-1192" y="996" as="targetPoint" />
          </mxGeometry>
        </mxCell>
        <mxCell id="sK9uzCpT_N-U4nyebc3v-264" value="Give" style="rhombus;whiteSpace=wrap;html=1;fontSize=15;fillColor=#dae8fc;strokeColor=#6c8ebf;rounded=1;arcSize=12;spacing=2;fillStyle=auto;" vertex="1" parent="1">
          <mxGeometry x="-1303.5" y="1109" width="80" height="80" as="geometry" />
        </mxCell>
        <mxCell id="sK9uzCpT_N-U4nyebc3v-267" value="dosage" style="ellipse;whiteSpace=wrap;html=1;fontSize=15;" vertex="1" parent="1">
          <mxGeometry x="-1218" y="1211" width="93" height="62" as="geometry" />
        </mxCell>
        <mxCell id="sK9uzCpT_N-U4nyebc3v-268" value="&lt;p style=&quot;line-height: 100%;&quot;&gt;med_date&lt;br&gt;&lt;/p&gt;" style="ellipse;whiteSpace=wrap;html=1;fontSize=15;" vertex="1" parent="1">
          <mxGeometry x="-1390" y="1204" width="91.5" height="62" as="geometry" />
        </mxCell>
        <mxCell id="sK9uzCpT_N-U4nyebc3v-277" value="" style="edgeStyle=orthogonalEdgeStyle;fontSize=12;html=1;endArrow=ERone;endFill=1;rounded=0;startSize=8;endSize=8;entryX=0.25;entryY=1;entryDx=0;entryDy=0;flowAnimation=0;shadow=0;" edge="1" parent="1" source="sK9uzCpT_N-U4nyebc3v-260">
          <mxGeometry width="100" height="100" relative="1" as="geometry">
            <mxPoint x="-449" y="975" as="sourcePoint" />
            <mxPoint x="90" y="264" as="targetPoint" />
            <Array as="points">
              <mxPoint x="91" y="975" />
            </Array>
          </mxGeometry>
        </mxCell>
        <mxCell id="sK9uzCpT_N-U4nyebc3v-281" value="" style="edgeStyle=orthogonalEdgeStyle;fontSize=12;html=1;endArrow=ERoneToMany;rounded=0;startSize=8;endSize=8;exitX=1;exitY=0.5;exitDx=0;exitDy=0;entryX=0.25;entryY=1;entryDx=0;entryDy=0;" edge="1" parent="1" source="sK9uzCpT_N-U4nyebc3v-214" target="sK9uzCpT_N-U4nyebc3v-61">
          <mxGeometry width="100" height="100" relative="1" as="geometry">
            <mxPoint x="-1411" y="1132" as="sourcePoint" />
            <mxPoint x="-1310" y="999" as="targetPoint" />
          </mxGeometry>
        </mxCell>
        <mxCell id="sK9uzCpT_N-U4nyebc3v-282" value="" style="edgeStyle=orthogonalEdgeStyle;fontSize=12;html=1;endArrow=ERoneToMany;rounded=0;startSize=8;endSize=8;entryX=1;entryY=0.5;entryDx=0;entryDy=0;exitX=0.5;exitY=1;exitDx=0;exitDy=0;" edge="1" parent="1" source="sK9uzCpT_N-U4nyebc3v-226" target="sK9uzCpT_N-U4nyebc3v-97">
          <mxGeometry width="100" height="100" relative="1" as="geometry">
            <mxPoint x="200" y="950" as="sourcePoint" />
            <mxPoint x="498" y="1102" as="targetPoint" />
          </mxGeometry>
        </mxCell>
        <mxCell id="sK9uzCpT_N-U4nyebc3v-283" value="" style="endArrow=none;html=1;rounded=0;fontSize=12;startSize=8;endSize=8;curved=1;exitX=0.5;exitY=1;exitDx=0;exitDy=0;entryX=0.5;entryY=0;entryDx=0;entryDy=0;" edge="1" parent="1" source="sK9uzCpT_N-U4nyebc3v-115" target="sK9uzCpT_N-U4nyebc3v-114">
          <mxGeometry width="50" height="50" relative="1" as="geometry">
            <mxPoint x="736" y="232" as="sourcePoint" />
            <mxPoint x="660" y="405" as="targetPoint" />
          </mxGeometry>
        </mxCell>
        <mxCell id="sK9uzCpT_N-U4nyebc3v-291" value="" style="fontSize=12;html=1;endArrow=ERoneToMany;rounded=0;startSize=8;endSize=8;entryX=1;entryY=0.5;entryDx=0;entryDy=0;exitX=0;exitY=0.5;exitDx=0;exitDy=0;edgeStyle=orthogonalEdgeStyle;" edge="1" parent="1" source="sK9uzCpT_N-U4nyebc3v-264" target="sK9uzCpT_N-U4nyebc3v-44">
          <mxGeometry width="100" height="100" relative="1" as="geometry">
            <mxPoint x="-1372" y="1117" as="sourcePoint" />
            <mxPoint x="-1725.05" y="1107" as="targetPoint" />
          </mxGeometry>
        </mxCell>
        <mxCell id="sK9uzCpT_N-U4nyebc3v-293" value="" style="endArrow=none;html=1;rounded=0;fontSize=12;startSize=8;endSize=8;curved=1;exitX=0.5;exitY=0;exitDx=0;exitDy=0;entryX=0.325;entryY=0.861;entryDx=0;entryDy=0;entryPerimeter=0;" edge="1" parent="1" source="sK9uzCpT_N-U4nyebc3v-268" target="sK9uzCpT_N-U4nyebc3v-264">
          <mxGeometry width="50" height="50" relative="1" as="geometry">
            <mxPoint x="-1224.5" y="1250" as="sourcePoint" />
            <mxPoint x="-1130.5" y="1080" as="targetPoint" />
            <Array as="points">
              <mxPoint x="-1309" y="1194" />
            </Array>
          </mxGeometry>
        </mxCell>
        <mxCell id="sK9uzCpT_N-U4nyebc3v-295" value="" style="endArrow=none;html=1;rounded=0;fontSize=12;curved=1;exitX=1;exitY=1;exitDx=0;exitDy=0;entryX=0.5;entryY=0;entryDx=0;entryDy=0;" edge="1" parent="1" source="sK9uzCpT_N-U4nyebc3v-264" target="sK9uzCpT_N-U4nyebc3v-267">
          <mxGeometry width="50" height="50" relative="1" as="geometry">
            <mxPoint x="-1183" y="1200" as="sourcePoint" />
            <mxPoint x="-1117" y="1174" as="targetPoint" />
            <Array as="points">
              <mxPoint x="-1148" y="1190" />
            </Array>
          </mxGeometry>
        </mxCell>
        <mxCell id="sK9uzCpT_N-U4nyebc3v-298" value="" style="fontSize=12;html=1;endArrow=ERoneToMany;rounded=0;entryX=0.917;entryY=0.99;entryDx=0;entryDy=0;entryPerimeter=0;exitX=1;exitY=0.5;exitDx=0;exitDy=0;edgeStyle=orthogonalEdgeStyle;" edge="1" parent="1" source="sK9uzCpT_N-U4nyebc3v-264" target="sK9uzCpT_N-U4nyebc3v-1">
          <mxGeometry width="100" height="100" relative="1" as="geometry">
            <mxPoint x="546" y="1425" as="sourcePoint" />
            <mxPoint x="165" y="270" as="targetPoint" />
            <Array as="points">
              <mxPoint x="-963" y="1149" />
              <mxPoint x="-963" y="1433" />
              <mxPoint x="505" y="1433" />
              <mxPoint x="505" y="313" />
              <mxPoint x="162" y="313" />
            </Array>
          </mxGeometry>
        </mxCell>
        <mxCell id="sK9uzCpT_N-U4nyebc3v-300" value="" style="endArrow=none;html=1;rounded=0;fontSize=12;startSize=8;endSize=8;curved=1;exitX=0;exitY=0.5;exitDx=0;exitDy=0;entryX=1;entryY=0.5;entryDx=0;entryDy=0;" edge="1" parent="1" source="sK9uzCpT_N-U4nyebc3v-143" target="sK9uzCpT_N-U4nyebc3v-148">
          <mxGeometry width="50" height="50" relative="1" as="geometry">
            <mxPoint x="-2255" y="1725" as="sourcePoint" />
            <mxPoint x="-2295" y="1707" as="targetPoint" />
          </mxGeometry>
        </mxCell>
      </root>
    </mxGraphModel>
  </diagram>
</mxfile>
